<?xml version="1.0" encoding="UTF-8"?>
<svg id="Livello_1" data-name="Livello 1" xmlns="http://www.w3.org/2000/svg" viewBox="0 0 784 784">
  <defs>
    <style>
      .cls-1 {
        fill: #000;
        stroke-width: 0px;
      }
    </style>
  </defs>
  <path class="cls-1" d="M473.23,559.18c-3.79,5.54-6.92,10.39-10.34,15.04-3.21,4.37-7.23,7.81-12.68,9.21-8.98,2.31-14.96-2.94-13.49-12.02,2.1-13.03,6.95-25.31,10.47-37.95.67-2.43,2.7-5.32-.44-7.17-2.86-1.68-5.61.12-7.65,2.1-9.43,9.17-14.98,20.67-19.12,32.92-1.91,5.67-3.53,11.45-5.03,17.24-.7,2.68-1.89,3.69-4.78,3.76-13.93.33-13.91.43-10.29-12.96,3.52-13,6.95-26.03,10.53-39.01,1.22-4.44.38-7.26-4.79-7.43-1.42-.05-2.67-.12-2.57-2.11.1-2.04,1.64-1.8,2.87-1.92,8.44-.81,16.85-1.78,26.04-3.95-2.76,8.9-5.32,17.12-7.87,25.34,5.03-5.73,8.95-12.14,14.49-17.25,3.73-3.44,7.74-6.36,12.74-7.55,9.86-2.33,16.12,3.21,14.83,13.24-1.22,9.47-4.88,18.29-7.8,27.3-1.39,4.27-2.91,8.5-4.2,12.8-.45,1.52-1.09,3.42.84,4.48,1.93,1.06,3.19-.48,4.22-1.69,7.14-8.41,12.95-17.73,18.05-27.47,6.94-13.25,15.69-24.39,31-28.34,2.38-.61,4.94-.72,7.41-.73,5.61-.02,10.74,1.48,13.6,6.73,3.04,5.6,1.57,11.13-1.87,15.99-6.82,9.64-16.78,14.38-27.95,16.93-6.62,1.51-8.54,5.24-6.53,13.1,1.47,5.74,6.51,8.51,12.4,6.46,8.42-2.92,15.04-8.55,20.74-15.15,7.35-8.51,12.67-18.31,17.11-28.6.83-1.92.62-3.09-.66-4.84-4.34-5.94-2.27-16.36,3.78-20.51,2.73-1.87,5.77-2,8.54-.59,2.92,1.48,2.14,4.51,2.02,7.17-.12,2.72-3.4,5.67-1.13,7.72,1.52,1.38,5.09.49,7.74.62,8.62.45,12.64,5.47,10.88,14.03-1.79,8.65-5.06,16.88-7.88,25.23-.8,2.36-1.83,4.66-2.42,7.08-.59,2.42-2.83,5.63.19,7.18,2.6,1.33,4.77-1.66,6.49-3.54,6.34-6.97,10.77-15.14,14.45-23.76,5.62-13.13,13.66-24.18,27.61-29.27,20.8-7.59,36.36,4.58,34.23,26.45-1.66,16.99-17.15,35.89-32.83,39.83-6.26,1.57-12.53,1.52-18.61-1.05-8.32-3.52-10.16-6.08-13.81-19.56-3.12,4.08-5.98,8.05-9.08,11.81-3.2,3.88-6.82,7.32-11.83,8.85-9,2.74-15.36-2.11-14.73-11.45.65-9.59,4.53-18.36,7.38-27.39.75-2.38,1.56-4.74,2.42-7.08,1.04-2.8.32-4.6-2.45-6.06-3.2-1.69-4.65-1.3-6.2,2.27-7.12,16.31-15.92,31.54-30.29,42.72-5.89,4.58-12.48,7.58-20.12,7.89-13.22.55-21.8-6.87-23.1-20.09-.13-1.3-.27-2.59-.51-4.96ZM599.65,568.37c.09,1.42.05,3.1.31,4.73.96,6.05,6.14,8.55,11.54,5.54,3.64-2.03,5.84-5.39,7.66-8.98,6.33-12.47,9.73-25.77,10.75-39.67.28-3.77.36-8.02-4.03-9.88-4.45-1.88-8.07.17-11.21,3.26-2.28,2.25-3.98,4.95-5.29,7.82-5.33,11.74-8.75,24.01-9.74,37.17ZM517.32,526.69c-.03-2.48.37-5.29-2.39-6.56-2.76-1.26-5.14.2-7.26,1.97-.51.42-.98.9-1.4,1.41-6.05,7.18-8.6,15.97-11.22,24.71-.64,2.14.32,2.45,2.37,2.04,9.89-1.99,19.53-13.31,19.91-23.57Z"/>
  <g>
    <path class="cls-1" d="M0,372c.98-9.07,1.86-18.16,2.94-27.22,8.07-67.35,31.91-128.67,72.17-183.18C136.84,78.03,219.02,26.26,321.11,6.42c15.85-3.08,31.9-4.92,48.05-5.7.95-.05,1.89-.47,2.83-.72,13.33,0,26.67,0,40,0,9.05.98,18.11,1.88,27.15,2.97,68.02,8.21,129.83,32.48,184.7,73.4,81.3,60.65,132.23,140.95,152.63,240.4,3.95,19.26,6.16,38.76,6.79,58.43.03.98-.08,2.02.74,2.8v28c-1.79,6.64-1.11,13.5-1.8,20.25-12.61,122.2-69.46,218.6-169.71,289.12-51.55,36.27-109.34,57.34-171.85,65.32-10.22,1.31-20.56,1.71-30.84,2.55-1.29.1-2.69-.3-3.8.76h-28c-6.81-1.76-13.83-1.17-20.74-1.82-90-8.48-168.15-43.48-233.91-105.37-63.9-60.14-102.96-133.93-118.03-220.36-2.29-13.11-3.85-26.34-4.45-39.66-.07-1.6.34-3.37-.88-4.79v-40ZM392.2,6.88C182.52,6.22,11.08,174.99,6.83,383.77c-4.36,213.95,166.08,389.87,378.68,393.15,215.47,3.33,388.35-168.59,391.41-378.97C780.11,178.94,602.78,6.35,392.2,6.88Z"/>
    <path class="cls-1" d="M227.86,415.31c-16.17,6.18-33.11,10.7-47.37,21.27-3.89,2.88-7.01,7.99-13.36,5.46-1.5-.6-2.37,1.52-3.39,2.56-7.1,7.31-9.45,7.5-17.65,1.37-3.35-2.51-6.34-5.4-9.01-8.61-1.76-2.12-1.61-3.66,1.01-5.13,6.01-3.38,12.34-5.91,19.1-7.06,6.7-1.14,12.66-3.76,18.43-7.25,28.53-17.24,57.67-33.51,89.47-43.78,11.91-3.85,17.01-8.83,16.58-21.71-.44-13.22,2.04-26.51,5.16-39.51.43-1.77.63-3.62.71-5.44.3-7.06-3.7-10.56-10.55-9.89-7.78.77-15.6,1.34-23.41,1.56-5.12.14-8.86,2.22-12,6.03-9.17,11.12-12.52,11.19-22.61,1.02-3.06-3.09-5.02-6.63-5.67-10.85-.69-4.48.21-8.18,3.88-11.62,13.39-12.56,27.2-24.53,42.93-34.12.43-.26.81-.61,1.27-.79,12.41-4.8,20.37-13.86,25.19-26.02.52-1.3,1.15-3.38,2.68-3.27,1.99.14,1.88,2.52,2.21,3.98.9,3.89,1.44,7.85,2.14,11.78.19,1.09-.18,2.55,1.31,2.93,1.61.42,2.42-.85,3.11-1.98,2.3-3.76,5.53-6.63,8.86-9.4.89-.74,1.98-1.51,3.16-.91,1.3.66.9,2.09.76,3.16-.62,4.78-1.39,9.54-2.09,14.32-.46,3.16.35,5.79,2.71,8.13,10.17,10.1,20.15,20.37,29.39,31.34,2.02,2.4,4.33,4.34,7.62,1.83.13-.1.31-.19.46-.18,9.54.66,12.51-5.95,15.36-13.28,2.91-7.49,7.38-14.16,13.17-19.85,1.45-1.42,2.69-3,3.36-4.91,1.51-4.29-.87-7.74-5.36-8.01-2.45-.15-4.51-1.05-5.67-3.4-.37-.75-.52-1.86-1.12-2.19-9.53-5.4-4.38-16.01-8.32-23.38-.3-.56,0-1.83.47-2.34,4.76-5.04,8.8-11.13,16.04-12.95,6.11-1.53,11.53-.04,15.79,4.92,2.2,2.56,3.88,5.41,5.11,8.52,1.51,3.8,2.04,8.33,7.58,8.61,5.68.29,11.18.39,13.7-6.24.23-.6.68-1.2,1.2-1.57,3.07-2.19,6.99-3.01,9.45-6.25,2.31-3.05,5.37-5.34,9.41-7.96-1.95,5.81-6.08,9.16-8.52,13.52-1.15,2.06-3.35,3.62-2.32,6.7.68,2.06-1.75,2.52-3.12,3.26-6.34,3.44-13.52,4.58-20.15,7.26-2.35.95-5.21,1.83-3.38,5.19,1.51,2.77,2.85,6.43,7.38,4.72,4.98-1.88,9.93-3.82,14.93-5.64,2.2-.8,3.57-2.32,4.64-4.29,5.72-10.52,11.48-21.02,17.17-31.56.86-1.6,1.61-3.32,2.07-5.07,3.17-11.91,2.43-13.95-7.55-21.05-10.99-7.82-22.03-15.56-32.99-23.41-1.99-1.43-3.44-2.1-4.3.97-.89,3.15-2.17,1.03-2.91.01-8.09-11.02-16.71-21.59-26.58-31.09-.92-.89-1.54-2.1-2.34-3.21,1.75-1.13,2.74.23,3.68.84,10.74,7.02,21.62,13.73,33.52,18.68,2.22.92,6.98,2.14,1.57,5.71-1.42.94-.7,2,.4,2.76,5.49,3.79,11.12,6.22,18.16,4.19,14.85-4.3,29.54-9.2,44.76-12.19,8.8-1.73,17.57-.85,26.36-.45.89.04,1.51.57,2.19,1.78-14.51,1.53-27.82,7.52-42.21,9.37,13.03-1.43,25.87-1.13,38.71,1.35-23.03,2.34-45.23,11.11-69.04,8.15,6.18,6.21,12.73,11.62,19.95,16.18,1.33.84,2.78.76,4.33.41,1.77-.4,3.63-.54,5.45-.57,11.23-.2,12.51.8,12.18,11.98-.13,4.51,2.19,6.68,5.24,8.83,35.66,25.14,69.42,52.88,105.52,77.43,5.78,3.93,11.27,8.29,16.97,12.34,2.32,1.65,4.84,3.63,2.68,6.36-2.23,2.82-4.56-.23-6.28-1.54-27.7-21.09-56.76-40.32-84.3-61.64-13.42-10.39-27.32-20.18-41.14-30.05-5.26-3.76-7.37-2.76-8.7,3.7-2.42,11.74-5.06,23.4-8.86,34.79-1.52,4.57-3.8,8.39-7.4,11.59-6.23,5.53-12.23,11.3-18.48,16.81-3.11,2.74-4.48,5.88-4.42,10.06.29,17.82.44,35.57,5.56,52.94,2.96,10.03,2.34,10.11,12.58,7.93,20.83-4.43,41.07-3.32,60.17,7.03,3.7,2.01,6.89,1.22,10.39-.45,14.18-6.77,28.4-8.88,42.85-.43,7.05,4.12,13.94,8.26,20.08,13.81,9.59,8.67,20.34,15.5,33.4,18.07,3.75.74,6.78,3.48,9.93,5.65,13.05,9,26.27,17.61,42,21.4,2.08.5,4.61.96,5.89,4.04-5.25,1.43-10.4,1.32-15.28-.07-13.42-3.83-27.09-6.96-39.71-13.2-3.84-1.9-7.77-2.89-12.06-2.19-4.64.76-8.44-1.4-12.08-3.8-3.29-2.17-6.75-3.88-10.76-3.1-15.76,3.07-27.7-4.57-38.99-13.88-3.72-3.07-6.98-6.67-10.58-9.89-1.47-1.31-3.16-2.5-4.95-3.31-2.57-1.17-5.45-.84-7.58.78-2.49,1.89-.57,4.46.35,6.35,7.35,15.01,19.83,24.02,35.47,28.54,12.83,3.71,25.24,7.76,36.69,15.12,9.97,6.41,21.49,9.71,33.52,10.46,2.29.14,4.46.21,4.41,3.37-.03,2.04,1.46,2.41,3.03,2.54,1.49.12,3,.24,4.49.16,4.66-.27,7.37,1.56,8.43,6.38,1.08,4.88,2.22,9.74,2.67,14.71.49,5.5-1.01,6.76-6.22,5.26-8.64-2.48-17.05-5.6-25.3-9.19-11.59-5.05-23.28-9.87-34.94-14.76-1.81-.76-3.63-1.61-6.07-1.44,2.68,4.23,6.6,6.75,10.19,9.51,11.92,9.16,25.45,14.98,40,18.56,1.94.48,4.22.66,4.7,3.06.57,2.81,2.72,3.06,4.81,3.46,11.42,2.17,15.88,6.49,17.76,17.93.58,3.51,2.02,7.91-1.01,10.45-2.95,2.47-6.61-.2-9.84-1.38-29.78-10.89-58.15-24.82-85.4-40.92-9.12-5.39-18.91-6.52-28.96-8.13-19.6-3.15-39.62-1.64-59.08-5.88-6.01-1.31-12.25-1.82-18.08-3.68-14.54-4.63-28.69-.04-42.99,1.07-1.49.12-2.98.58-4.46.52-4.75-.19-6.43,2.72-5.93,6.64.55,4.31-1.16,7-4.83,8.14-9.86,3.07-18.08,9.13-26.93,14.06-3.22,1.79-7.41,5.07-10.45,1.75-3.19-3.48.91-7.03,2.99-10.02,2.75-3.96,5.91-7.63,8.96-11.38,1.44-1.77,2.56-3.58,1.41-5.89-1.08-2.17-3.19-1.47-4.9-1.41-16.46.56-32.92,1.86-49.4.5-.8-.07-1.68.04-2.42.33-19.41,7.79-39.76,12.13-60.17,16.05-22.88,4.4-42.74,14.37-59.76,30.19-1.97,1.83-3.75,4.6-7.08,1.74-1.77-1.52-2.56.49-3.47,1.54-7.45,8.54-10.18,8.8-19.44,1.88-11.02-8.24-11.26-11.66,1.19-17.13,25.49-11.2,46.81-29.21,71.11-42.5ZM379.37,311.76c-.76-4.75-1.54-9.5-2.28-14.26-.19-1.22-.67-2.38-1.74-2.86-1.63-.72-1.75,1.12-2.37,1.88-3.47,4.28-7.42,7.21-13.34,7.6-8.88.59-8.76.84-4.95,9.25,1.19,2.62,4.16,5.25,2.71,8.15-2.02,4.06,1.44,4.77,3.1,6.45,1.73,1.76,3.84,1.63,5.74-.19,3.71-3.56,7.45-7.09,11.22-10.6,1.62-1.5,2.11-3.31,1.9-5.43Z"/>
    <path class="cls-1" d="M298.35,560.21c-4.65,6.35-8.55,11.72-13.43,16.27-8.93,8.33-22.64,10.23-32.34,4.41-6.03-3.62-7.83-6.75-10.26-18.16-2.71,3.69-5.12,7.22-7.78,10.54-3.58,4.46-7.63,8.37-13.39,9.97-9.18,2.55-15.27-2.5-14.18-11.91.32-2.78,1.02-5.51,1.77-9.4-3.99,5.12-7.25,9.39-10.61,13.59-2.51,3.15-5.43,5.85-9.11,7.63-4.07,1.97-8.02,1.96-11.78-.75-3.46-2.5-3.71-6.06-3.23-9.86.15-1.14.27-2.28.55-4.62-2.24,2.87-3.72,4.96-5.41,6.87-4.14,4.7-8.68,8.78-15.35,9.36-9.75.85-16.82-5.02-17.67-14.76-.55-6.22.02-12.35,2.14-18.22,4.1-11.34,10.76-21,19.8-28.96,3.66-3.22,7.84-5.63,12.65-6.77,8.14-1.92,12.05-.04,16.13,8.46,1.27-9.61,8.42-6.63,13.7-7.65,3.07-.59,3.74.48,2.87,3.5-3.46,11.98-6.76,24.01-10.02,36.05-1.22,4.49-2.23,9.04-3.19,13.6-.34,1.59-.71,3.54,1.2,4.43,1.59.74,2.94-.38,3.89-1.55,7.71-9.53,16.21-18.53,19.45-30.92,3.79-14.48,7.84-28.89,11.71-43.36,1.98-7.38,1.39-8.29-5.77-9.74-1.12-.23-2.4-.01-2.5-1.72-.1-1.87,1.11-2.2,2.55-2.27,9.11-.49,18.03-2.46,27.8-3.81-2.77,10.13-5.37,19.7-8,29.26-5.07,18.44-10.23,36.85-15.14,55.33-.66,2.48-2.84,6.08.34,7.71,3.24,1.66,5.36-1.85,7.12-4.1,5.13-6.56,9.51-13.54,12.48-21.45,4.78-12.75,13.03-22.7,25.22-29.16,5.67-3.01,11.76-3.6,17.97-2.87,8.78,1.02,14.39,9.31,11.58,16.78-1.92,5.11-7.31,7.49-12.19,5.38-4.64-2-5.84-6.42-3.22-11.7.77-1.56,2.58-3.16.83-4.91-1.74-1.74-4.07-1.26-6.11-.43-2.7,1.09-4.71,3.15-6.27,5.55-6.77,10.36-11.02,21.66-11.78,34.04-.35,5.66.83,11.3,6.62,14.01,5.67,2.66,10.93.51,15.16-3.4,8-7.38,14.42-16,19.23-25.83,6.65-13.6,15.68-24.77,31.12-28.91,4.39-1.18,8.9-1.29,13.3.12,7.76,2.49,10.89,8.61,8.51,16.44-2,6.61-6.72,10.97-12.16,14.71-6.14,4.21-12.96,6.83-20.29,7.9-3.64.53-5.31,2.14-4.99,5.84.16,1.82-.1,3.67.1,5.48.74,6.6,6.23,10.13,12.63,8.21,5.28-1.59,8.49-5.65,11.6-9.81,1.22-1.63,2.13-3.52,4.64-1.59,2.51,1.92.3,3.32-.52,4.58-5.53,8.46-12.12,15.5-23.08,16.44-13.91,1.18-23.07-6.46-24.25-20.34-.07-.78-.27-1.56-.61-3.53ZM183.28,530.03c-.07-3.45.13-7.03-3.74-8.56-3.89-1.54-6.63.88-9.2,3.37-.36.35-.74.68-1.03,1.08-8.05,11.27-13.3,23.71-15.33,37.41-.61,4.09.1,8.3,4.51,10.12,4.24,1.75,6.98-1.45,9.24-4.22,9.3-11.41,13.72-24.83,15.55-39.21ZM342.94,525.78c-.32-1.93-.22-4.52-2.69-5.66-2.33-1.07-4.59-.19-6.43,1.41-1.37,1.19-2.68,2.5-3.73,3.96-4.92,6.82-7.42,14.72-9.79,22.66-.58,1.96-.26,2.62,2.09,2.19,9.89-1.82,20.28-13.93,20.55-24.56Z"/>
  </g>
</svg>