<?xml version="1.0" encoding="UTF-8"?>
<svg id="Livello_2" data-name="Livello 2" xmlns="http://www.w3.org/2000/svg" viewBox="0 0 647.93 487.97">
  <defs>
    <style>
      .cls-1 {
        fill: #000;
      }

      .cls-1, .cls-2 {
        stroke-width: 0px;
      }

      .cls-2 {
        fill: #fff;
      }
    </style>
  </defs>
  <g id="Livello_1-2" data-name="Livello 1">
    <g>
      <path class="cls-1" d="M460.23,0c3.67,3.54,7.32,7.1,11.01,10.61,3.83,3.65,3.95,4.89.65,8.99-53.08,66.02-106.16,132.04-159.24,198.06-10.21,12.7-20.33,25.47-30.7,38.02-1.76,2.13-4.4,3.94-7.01,4.91-10.5,3.89-21.15,2.57-31.29-1.07-35.85-12.87-62.82-35.92-78.96-70.81-3.5-7.57-5.04-15.71-3.68-24.15.76-4.72,2.62-8.86,5.87-12.47C212.05,102.01,257.17,51.88,302.3,1.75c.51-.56.97-1.17,1.46-1.75,52.16,0,104.31,0,156.47,0Z"/>
      <path class="cls-1" d="M227.69,397.09c-.09,1.2-.14,1.92-.21,2.92,3.07.23,5.55-.16,8.02-2.39,8.32-7.51,13.28-17.58,20.37-26.04,10.94-13.06,21.06-26.81,31.51-40.28.19-.24.25-.58.51-1.24-.81.08-1.4.13-2.27.22.38-6.56,1.36-12.57,5.81-18.06,25-30.87,49.62-62.05,74.57-92.96,53.62-66.44,107.31-132.83,161.09-199.14,10-12.33,23.8-16.97,39.21-17.41,3.97-.11,7.95.38,11.89.85-6.44.95-12.89,1.91-17.8,2.64,4.57.37,10.68.87,16.79,1.34.75.06,1.82.22,2.21-.19,4.38-4.59,9.35-1.41,13.22-.06,26.66,9.24,45.61,26.61,54.62,53.92,1.25,3.8.82,6.91-1.6,10.32-31.95,45.1-63.76,90.3-95.61,135.48-1,1.42-2.05,2.81-3.03,4.24-1.38,2-3.04,2.93-5.56,2.03-2.5-.89-4.26-.21-5.95,2.2-16.05,22.84-32.25,45.56-48.41,68.32-.37.52-.69,1.08-1,1.57,3.83,5.23,3.91,6.76.32,11.86-43.97,62.41-87.96,124.8-131.95,187.2-2.59,3.68-4.26,4.23-8.63,2.84-43.64-13.87-87.27-27.77-130.92-41.6-3.24-1.03-5.03-2.91-5.91-6.2-2.24-8.35-3.49-16.73.29-24.86,3.71-7.97,9.08-14.5,18.39-17.52ZM417.83,230.51c1.83-2.41,3.66-4.82,5.49-7.23-.18-.11-.37-.22-.55-.33-1.06.67-2.13,1.33-3.19,2,1.67-1.81,3.33-3.61,5-5.42,1.89-2.05,3.87-4.02,5.63-6.17,3.69-4.53,7.22-9.21,10.91-13.74,1.6-1.97,3.77-3.67.88-6.55,3.99,1.36,7.59,2.8,11.14,4.38,7.53,3.35,14.86,7.27,22.6,10,5.42,1.91,11.36,2.77,17.13,3.15,5.78.37,11.03-1.69,14.88-6.96-1.01-.26-1.76-.46-2.84-.74,4.48-3.91,11.08-4.78,12.88-11.43.23.22.46.44.69.65-1.06,2.55-2.13,5.1-3.46,8.3,1.26-1.01,2-2.1,2.67-2.06,3.43.22,5.29-1.75,6.6-4.44,7.82-16.06,10.94-32.62,5.28-50.13-1.02-3.16-3.68-6.44.7-9.76-.33-.08-.66-.16-.99-.24-.93.33-1.86.66-2.88,1.03-2.26-3.19-4.51-6.35-6.77-9.53,2.5-3.14,5.01-6.27,7.51-9.41-.39-.27-.79-.54-1.18-.81-2.08,3.44-4.17,6.88-6.25,10.31-4.7-4.01-9.38-8.04-14.11-12.01-1.59-1.33-1.31-2.22.42-3.12.19.76.36,1.41.7,2.76,2-2.32,3.77-4.07,5.15-6.09,1.05-1.54,1.27-3.66,2.4-5.11,8.13-10.44,16.4-20.78,24.62-31.16.15-.19.16-.51.24-.81-.97.21-1.79.39-3.24.71.69-1.32.93-2.04,1.37-2.59,5.32-6.64,10.63-13.29,16.01-19.87,2.71-3.31,5.66-6.44,8.32-9.79,1.1-1.38,1.53-3.28,2.6-4.7,2.33-3.11,4.88-6.05,7.34-9.07,4.06-4.98,8.12-9.95,12.27-15.04-5.87-.46-12.3-.99-18.74-1.41-.64-.04-1.45.47-1.96.95-7.08,6.74-11.88,15.46-19.75,21.65-4.12,3.24-6.73,8.42-9.97,12.75-5.69,7.6-11.28,15.29-17.07,22.81-1.52,1.97-3.96,3.25-5.45,5.24-4.31,5.77-7.89,11.98-13.38,16.98-4.4,4.01-7.39,9.54-11.29,14.16-1.28,1.51-3.33,2.6-5.24,3.29-4.07,1.45-8.56,1.93-12.37,3.84-17.15,8.58-30.12,21.8-40.27,37.86-1.88,2.98-2.92,6.48-4.59,9.62-3.07,5.78-3.09,5.65,2.25,9.09,3.55,2.28,6.91,4.85,10.35,7.29-.17.39-.35.78-.52,1.17-4.42-.94-8.84-1.87-13.26-2.81l-.51.97c2.59,6.26,9.08,9.04,13.19,14.15-1.18.07-2.3-.03-3.29-.43-2.11-.85-4.18-1.82-6.23-2.81-2.86-1.39-4.95-.43-6.78,1.93-5.29,6.82-10.57,13.63-15.98,20.36-14.56,18.11-29.17,36.16-43.77,54.24-3.67,4.55-7.29,9.16-11.03,13.65-7.11,8.54-14.28,17.02-21.59,25.71.78.27,1.17.48,1.58.54,15.25,2.49,29.85,6.71,42.54,16.01,8.65,6.34,17.6,12.35,25.82,19.21,6.34,5.28,11.76,11.66,17.59,17.55.17-.13.33-.27.5-.4-5.25-6.1-10.49-12.2-15.66-18.21,2.26-3.46,4.41-6.73,6.55-10-.31-.22-.62-.45-.92-.67-1.98,2.39-4.04,4.71-5.91,7.18-1.5,1.98-2.61,1.89-3.68-.04,7.09-9.52,14-18.93,21.06-28.22,4.14-5.44,8.42-10.78,12.82-16.01,3.74-4.44,7.56-8.6,10.37-13.95,4.93-9.41,11.17-18.13,16.86-27.14v-.03c.73-1.56,1.9-3.06,2.13-4.69,1.25-8.98,4.52-17.06,9.92-24.34,1.39-1.88,2.54-3.94,3.81-5.94-4.79-2.62-9.21-5.03-13.46-7.35-1.34.94-2.46,1.73-3.58,2.51,0,0,.06.08.06.08.43-1.22.87-2.44,1.37-3.86-.66.13-.93.1-1.05.22-3.53,3.72-5.6,8.71-10.62,11.19-1.99.98-3.51,3.19-4.85,5.11-2.54,3.64-5.87,6.48-6.86,11.55-.66,3.38-3.16,8.15-8.45,8.6-.39.03-.76.73-1.08,1.16-2.91,3.91-5.81,7.82-8.86,11.94-.66-.37-1.62-.91-2.51-1.42-2.78,3.81-5.3,7.6-8.16,11.11-3.38,4.14-7.07,8.02-10.58,12.06-1.91,2.2-3.67,4.54-5.56,6.76-4.49,5.25-9.79,9.86-12.58,16.42-.28.65-1.27,1-1.93,1.49l.04.06c-.06-.17-.12-.35-.2-.51-.01-.02-.24.02-.29.09-1.57,1.93-3.06,3.92-4.71,5.78-1.95,2.19-4.05,4.27-6.08,6.39-.41-.26-.82-.52-1.23-.78.38-1.03.56-2.21,1.18-3.05,2.9-3.92,5.97-7.7,8.89-11.6,6.43-8.57,12.76-17.21,19.21-25.75,5.8-7.68,11.85-15.18,17.5-22.97,1.54-2.13,2.04-5.02,3.01-7.56.24,1.68,1,1.95,1.92.51,1.44-2.25,2.71-4.61,4.05-6.92.45-.43.89-.87,1.34-1.3ZM552.74,54.08c2.7-1.1,3.95-3.18,4.62-5.67-.35-.22-.7-.44-1.05-.66-1.19,2.17-2.38,4.34-3.57,6.52-.45-2.15-1.24-.68-1.71-.09-3.27,4.1-6.49,8.24-9.72,12.36,1.51-.66,2.75-1.64,3.73-2.82,2.62-3.16,5.14-6.42,7.7-9.63ZM339.78,418.99c1.18.96,2.37,1.93,3.77,3.07,4.06-5.56,8.15-11.1,12.13-16.71.4-.56.14-1.58.22-3.02-4.85,5.24-9.12,9.89-13.44,14.49-.8.85-1.81,1.49-2.72,2.23,7.64-11.18,15.8-21.96,25-32.15-.79-.48-1.6-.96-2.58-1.56-3.04,4.03-5.91,7.95-8.92,11.76-.56.7-1.92,1.58-2.46,1.35-2.61-1.11-3.71.42-4.95,2.2-1.99,2.84-4.11,5.58-6.17,8.37-1.83,2.48-3.66,4.96-5.56,7.54,2.19.95,3.93,1.7,5.7,2.42ZM277.74,386.24c-.11-.17-.22-.34-.32-.51,5.3-5.86,10.59-11.72,15.89-17.58-.21-.28-.43-.56-.64-.84-.74.32-1.68.46-2.19,1-2.38,2.49-4.71,5.04-6.93,7.67-1.53,1.81-2.67,4.12-5.73,2.6-.37-.18-1.31.23-1.64.64-4.45,5.55-8.83,11.15-13.11,16.59,2.57,1.49,4.79,2.78,7.01,4.07-.17.28-.33.56-.5.84-5.57-1.24-11.13-2.58-16.73-3.69-3.98-.79-4.74-.22-6.49,4.12,1.21.42,2.39.9,3.61,1.26,5.93,1.75,11.91,3.34,17.79,5.23,5.63,1.81,5.59,1.93,9.3-3.37-1.61-.81-3.19-1.6-4.82-2.41,4.49-5.94,8.82-11.68,13.62-18.02-3.31.99-5.71,1.7-8.11,2.41ZM346.45,380.45c-1.33.6-2.71.8-3.4,1.6-2.75,3.2-5.24,6.63-7.94,9.88-.61.73-1.94,1.77-2.44,1.55-2.96-1.32-4.08.67-5.45,2.54-2.69,3.68-5.47,7.29-8.19,10.94-1.06,1.43-2.08,2.89-2.8,3.9,3.2,2.15,6.06,4.07,9.31,6.24,3.89-5.4,8.09-11.16,12.17-17,.37-.53-.03-1.6-.07-2.41-2.48,1.24-4.39,2.19-6.17,3.08.17-5.31,6.42-4.78,7.98-9.27,1.33-3.8,4.34-7.01,7-11.07ZM313.9,395.41c-.14-.21-.29-.41-.43-.62,5.08-6.15,10.15-12.31,15.23-18.46-1.23-.37-2.57-.32-3.18.38-2.64,3.01-5.12,6.17-7.55,9.35-1.3,1.7-2.41,3.37-4.99,2.18-.47-.22-1.57.15-1.93.6-4.45,5.69-8.82,11.44-12.92,16.8,3.22,2.2,6.12,4.18,9.24,6.31,4.32-5.86,8.77-11.89,13.22-17.92-.26-.37-.52-.74-.78-1.11-1.97.83-3.94,1.66-5.91,2.5ZM311.09,371.72c-.05-.3-.11-.61-.16-.91-1.09.4-2.53.49-3.2,1.25-2.85,3.26-5.41,6.78-8.25,10.05-.69.79-2.21,1.58-3.08,1.36-1.99-.52-2.99.21-4.06,1.67-2.05,2.8-4.25,5.49-6.37,8.23-1.95,2.54-3.88,5.09-5.45,7.15,3.15,2.21,5.95,4.19,9.01,6.33,4.29-5.77,8.74-11.74,13.6-18.29-2.83.66-4.65,1.08-6.46,1.5-.15-.35-.3-.7-.45-1.05,1.4-1.31,1.5-3.95,4.56-3.62.52.06,1.35-1.01,1.73-1.72.85-1.59,1.25-3.49,2.32-4.9,1.9-2.5,4.15-4.73,6.26-7.08ZM309.59,429.55c.92-1.16,1.57-1.99,2.82-3.57-6.03-4.06-11.81-8.01-17.7-11.79-.55-.35-2.15.12-2.7.73-1.31,1.44-2.6,1.72-4.33,1-.76-.31-1.64-.32-2.46-.47,18.39,12.31,34.69,26.98,50.67,42.07-7.33-10.61-16.63-19.35-26.29-27.96ZM356.31,470.53c4.39-6.25,8.76-12.46,13.12-18.66,2.37-3.37,4.78-6.72,7.08-10.14,3.76-5.6,7.51-11.21,11.15-16.88,2.03-3.17,3.85-6.47,5.76-9.72-.39-.24-.78-.48-1.16-.72-13.13,18.19-26.26,36.38-39.56,54.8,1.49.54,2.47.9,3.62,1.32ZM636.56,46.27c-1.66-2.31-3.31-4.84-5.2-7.19-9.33-11.64-20.59-20.8-34.57-26.33-1.2-.47-2.75-.06-4.38-.06,8.31,5.25,16.45,9.65,23.72,15.19,7.27,5.54,13.67,12.23,20.42,18.39ZM343.93,456.01c.29.21.57.41.86.62,13.72-19.03,27.43-38.05,41.15-57.08-.25-.18-.5-.36-.75-.54-13.75,19-27.5,38.01-41.25,57.01ZM432.52,222.54c-.48-.37-.97-.73-1.45-1.1-4.58,7.35-11.59,12.84-15.03,21.06,5.49-6.65,10.99-13.31,16.48-19.96ZM467.17,227.51c.29.16.58.31.87.47,2.86-4.52,5.76-9.03,8.53-13.6.3-.49-.14-1.43-.24-2.16-.63.25-1.6.32-1.84.78-2.51,4.81-4.9,9.67-7.32,14.52ZM449.34,199c-4,5.02-7.99,10.04-11.99,15.07.35.27.7.54,1.06.81,3-5.78,10.63-8.04,10.93-15.87ZM424.14,371.71c-.83,1.16-1.44,2.81-2.62,3.52-3.28,1.99-3.74,2.45-3.54,6,5.23-4.82,6.57-6.91,6.16-9.53ZM539.16,123.29c.32.25.64.49.96.74,2.07-2.64,4.14-5.27,6.21-7.91-.35-.27-.71-.55-1.06-.82-2.04,2.66-4.07,5.33-6.11,7.99ZM555.09,80.35c.28.17.55.35.83.52,2.36-3.59,4.72-7.18,7.07-10.77l-.75-.5c-2.38,3.58-4.77,7.17-7.15,10.75Z"/>
      <path class="cls-1" d="M148.44,404.3c2.88,4.1,2.87,5.21-.07,8.85-7.84,9.72-15.98,19.21-23.42,29.23-3.98,5.35-9,7.36-14.92,6.42-7.01-1.12-14.19-2.54-20.7-5.24-23.33-9.68-42.83-25.01-60.36-42.94-10.3-10.53-19.49-21.92-25.49-35.54-2.47-5.61-4.4-11.48-3-17.68.6-2.64,1.86-5.42,3.62-7.44,9.05-10.4,18.38-20.56,27.56-30.85,1.94-2.18,3.95-3.16,6.89-2.02.72.28,2.19-.36,2.83-1.03,3.43-3.63,6.71-7.4,10.04-11.12,3.32-3.71,3.98-3.81,7.83-.42,8.06,7.11,16.07,14.28,24.09,21.44,25.03,22.35,50.05,44.69,75.07,67.05,4.21,3.76,4.19,3.78.57,8.26-3.48,4.3-6.95,8.6-10.56,13.06Z"/>
      <path class="cls-1" d="M115.96,209.95c2.15-1.7,4.51-3.19,6.4-5.13,3.72-3.84,4.9-4.05,8.86-.48,15.09,13.6,30.17,27.22,45.25,40.83,17.58,15.87,35.16,31.74,52.73,47.61,1.05.95,2.11,1.89,3.04,2.95,1.39,1.59,1.51,3.28.09,4.99-1.73,2.08-3.41,4.21-5.07,6.28,2.76,5.02,2.74,5.31-.88,9.81-7.02,8.71-14.45,17.13-20.95,26.21-5.13,7.16-11.96,8.86-19.86,8.57-11.42-.43-21.92-4.25-31.93-9.44-27.17-14.1-49.48-33.64-65.71-59.77-4.73-7.61-8.28-15.77-9.21-24.83-.76-7.4.8-14.03,6.41-19.33,2.09-1.98,4.09-4.07,6.13-6.11l-.06-.06c-2.31,2.93-4.61,5.86-6.83,8.69.66.9,1.35,1.75,1.94,2.66.79,1.21,1.26,2.73,2.29,3.66,9.33,8.46,18.76,16.8,28.13,25.21,26.42,23.71,52.82,47.44,79.27,71.13,1.04.93,2.43,1.45,3.56,2.11,9.62-11.81,18.85-23.14,28.08-34.47-1.34-1.11-2.45-1.94-3.47-2.87-35.36-31.96-70.72-63.93-106.06-95.91-.77-.7-1.38-1.58-2.07-2.37l-.07.07Z"/>
      <path class="cls-1" d="M91.25,232.1c1.01-1.35,1.93-2.77,3.05-4.02,5.16-5.79,10.35-11.56,15.61-17.25.99-1.07,2.26-2.04,3.59-2.58,1.21-.5,2.71-.4,2.47,1.7,0,0,.07-.07.07-.07-2.45-1.36-4.04-.33-5.73,1.62-5.46,6.29-11.09,12.43-16.7,18.59-.69.76-1.6,1.31-2.41,1.96l.06.06Z"/>
      <path class="cls-2" d="M454.85,205.74c1.12-.79,2.24-1.57,3.58-2.51,4.26,2.33,8.67,4.74,13.46,7.35-1.27,2-2.42,4.06-3.81,5.94-5.4,7.27-8.67,15.36-9.92,24.34-.23,1.63-1.4,3.13-2.15,4.67,1.83-7.44,3.67-14.87,5.53-22.39-5.07,2.1-10.74,16.33-9.72,24.64,1.2-1.52,2.21-2.78,3.39-4.27.36.91.59,1.48.82,2.06-5.69,9.01-11.92,17.74-16.86,27.14-2.8,5.34-6.62,9.51-10.37,13.95-4.4,5.23-8.68,10.57-12.82,16.01-7.06,9.3-13.97,18.71-21.06,28.22,1.07,1.93,2.18,2.02,3.68.04,1.87-2.47,3.93-4.79,5.91-7.18.31.22.62.45.92.67-2.14,3.27-4.28,6.54-6.55,10,5.17,6.01,10.42,12.11,15.66,18.21-.17.13-.33.27-.5.4-5.83-5.89-11.25-12.27-17.59-17.55-8.23-6.86-17.17-12.87-25.82-19.21-12.68-9.3-27.29-13.52-42.54-16.01-.41-.07-.8-.27-1.58-.54,7.3-8.69,14.48-17.17,21.59-25.71,3.74-4.5,7.35-9.1,11.03-13.65,14.59-18.08,29.21-36.14,43.77-54.24,5.4-6.72,10.69-13.54,15.98-20.36,1.83-2.36,3.92-3.32,6.78-1.93,2.05.99,4.12,1.96,6.23,2.81.99.4,2.11.49,3.29.43-4.11-5.1-10.6-7.89-13.19-14.15l.51-.97c4.42.94,8.84,1.87,13.26,2.81.17-.39.35-.78.52-1.17-3.44-2.44-6.8-5.01-10.35-7.29-5.34-3.43-5.32-3.31-2.25-9.09,1.67-3.13,2.7-6.64,4.59-9.62,10.16-16.06,23.13-29.28,40.27-37.86,3.81-1.9,8.3-2.38,12.37-3.84,1.91-.68,3.97-1.78,5.24-3.29,3.9-4.62,6.88-10.15,11.29-14.16,5.49-5,9.07-11.21,13.38-16.98,1.49-1.99,3.93-3.27,5.45-5.24,5.8-7.52,11.38-15.21,17.07-22.81,3.25-4.33,5.85-9.51,9.97-12.75,7.87-6.19,12.67-14.92,19.75-21.65.51-.49,1.32-1,1.96-.95,6.44.42,12.87.96,18.74,1.41-4.15,5.08-8.21,10.06-12.27,15.04-2.46,3.01-5,5.96-7.34,9.07-1.07,1.42-1.5,3.32-2.6,4.7-2.66,3.35-5.61,6.47-8.32,9.79-5.39,6.58-10.7,13.23-16.01,19.87-.44.55-.68,1.27-1.37,2.59,1.45-.32,2.27-.5,3.24-.71-.08.3-.09.61-.24.81-8.21,10.38-16.49,20.72-24.62,31.16-1.13,1.45-1.35,3.57-2.4,5.11-1.38,2.02-3.15,3.77-5.15,6.09-.34-1.35-.51-2-.7-2.76-1.72.89-2,1.79-.42,3.12,4.73,3.97,9.41,8,14.11,12.01l-.07-.08c2.25,3.17,4.5,6.33,6.76,9.52,1.01-.36,1.94-.69,2.88-1.03.33.08.66.16.99.24-4.38,3.33-1.72,6.6-.7,9.76,5.66,17.51,2.54,34.07-5.28,50.13-1.31,2.69-3.17,4.66-6.6,4.44-.67-.04-1.41,1.05-2.67,2.06,1.33-3.2,2.4-5.75,3.46-8.3-.23-.22-.46-.44-.69-.65-1.79,6.65-8.4,7.52-12.88,11.43,1.07.28,1.82.47,2.84.74-3.85,5.27-9.1,7.33-14.88,6.96-5.77-.37-11.71-1.23-17.13-3.15-7.75-2.73-15.07-6.65-22.6-10-3.55-1.58-7.15-3.02-11.14-4.38,2.89,2.88.72,4.58-.88,6.55-3.69,4.53-7.22,9.21-10.91,13.74-1.76,2.16-3.74,4.12-5.63,6.17-1.66,1.81-3.33,3.61-5,5.42-.15.04-.3.08-.46.12-1.85,2.78-3.7,5.57-5.54,8.35-1.02,1.6-2.03,3.2-3.05,4.8-.97,2.54-1.47,5.43-3.01,7.56-5.65,7.79-11.7,15.29-17.5,22.97-6.46,8.55-12.79,17.19-19.21,25.75-2.92,3.9-6,7.69-8.89,11.6-.63.85-.8,2.03-1.18,3.05.41.26.82.52,1.23.78,2.03-2.12,4.13-4.2,6.08-6.39,1.65-1.85,3.14-3.85,4.71-5.78.06-.07.28-.11.29-.09.09.16.14.34.21.53-2.65,4.18-5.31,8.34-7.96,12.5,2.57-2.43,4.64-5.22,6.43-8.18.78-1.29,1.01-2.92,1.48-4.4.66-.49,1.66-.83,1.93-1.49,2.8-6.56,8.09-11.17,12.58-16.42,1.9-2.22,3.65-4.56,5.56-6.76,3.5-4.04,7.2-7.92,10.58-12.06,2.86-3.51,5.38-7.3,8.16-11.11.9.51,1.86,1.05,2.51,1.42,3.05-4.11,5.95-8.03,8.86-11.94.32-.43.69-1.12,1.08-1.16,5.28-.45,7.78-5.22,8.45-8.6,1-5.07,4.32-7.91,6.86-11.55,1.34-1.92,2.87-4.13,4.85-5.11,5.02-2.48,7.09-7.47,10.62-11.19.12-.12.39-.09,1.05-.22-.51,1.42-.94,2.64-1.37,3.87-3.34,4.01-6.7,8.02-10.05,12.02.34.26.68.52,1.02.77,2.99-4.29,5.98-8.59,8.97-12.88ZM390.21,263.11c-6.8,5.64-11.36,12.95-15.53,20.6.55.01.99-.1,1.22-.38,4.37-5.34,8.8-10.64,13.02-16.1.83-1.07.84-2.77,1.25-4.15,1.03-.37,2.46-.44,3.02-1.17,3.87-5.05,7.57-10.24,11.28-15.41.35-.49.46-1.16.68-1.75-1.19.56-1.79,1.42-2.44,2.25-4.16,5.38-8.34,10.75-12.51,16.12ZM453.75,122.59c1.88,1.57,3.48,3.13,5.29,4.38,2.72,1.89,5.41,4.45,8.45,5.06,2.28.46,2.29,1.63,2.97,2.86.15.26.24.56.36.87.83-.39,1.58-.74,2.33-1.09,1.56,3.41,10.88,7.9,14.76,7.15-.12,1.2-.24,2.36-.39,3.77,2.85-.46,5.74-1.81,7.34,2.02.45,1.09,2.2,1.77,3.49,2.32.78.33,1.82.06,1.88.06,1.65,1.62,2.65,3.1,4.04,3.84,2.36,1.25,5.57,1.43,7.33,3.17,2.07,2.06,3.24,4.56,6.5,2.09.04-.03.17.07.38.17-.39.81-.77,1.62-1.13,2.37,2.67,2.06,7.18,1.72,7.05,6.51.09-4.3.76-8.65-.05-12.7-1.44-7.18-2.77-14.67-5.94-21.16-5.45-11.15-14.89-18.34-26.76-22.48-13.47-4.7-28.64.08-37.88,10.77ZM430.87,265.17c-.24-.37-.48-.74-.72-1.11-1.47.37-3.6.24-4.31,1.18-4.38,5.84-8.64,11.8-12.54,17.98-2.75,4.35-4.85,9.12-7.29,13.67-3.17,5.91-6.37,11.8-9.6,17.68-2.11,3.84-4.31,7.63-6.47,11.44,6.77-6.91,12.12-14.88,16.59-23.37,5.44-10.35,10.4-20.92,18.59-29.55,2.23-2.35,3.85-5.26,5.75-7.92ZM406.8,308.14c.3.24.61.48.91.72.9-1.16,1.81-2.31,2.7-3.47,4.17-5.41,7.93-11.19,12.59-16.14,7.31-7.76,14.51-15.41,19.05-25.3,2.07-4.51,2.66-8.73,1.03-13.41-.58,1.23-1.08,2.53-1.09,3.82-.07,6.37-1.61,12.3-5.58,17.32-3.49,4.42-7.44,8.47-10.98,12.85-6.29,7.8-12.42,15.72-18.62,23.6ZM438.43,259.41c-5.19,14.78-18.64,23.67-25.7,37.04,3.47-4,6.76-8.13,10.08-12.24,1.29-1.59,2.43-3.49,4.08-4.57,4.83-3.14,7.95-7.64,10.4-12.58,1.08-2.17,2.62-4.65,1.13-7.66ZM414.02,254.75c-.41-.32-.83-.63-1.24-.95-4.26,5.66-8.52,11.31-12.78,16.97.38.29.76.59,1.15.88,4.29-5.63,8.58-11.27,12.87-16.9ZM394.5,278.92c-.2-.2-.39-.39-.59-.59-2.08,2.91-4.17,5.82-6.25,8.72.21.15.42.3.63.46,2.07-2.87,4.14-5.73,6.2-8.6ZM428.29,155.49c1.76,2.98,3.13,2.88,5.16,0h-5.16ZM433.93,256.57c-.29-.13-.58-.25-.87-.38-.86,1.97-1.73,3.93-2.59,5.9.33.14.67.29,1,.43.82-1.98,1.64-3.97,2.46-5.95Z"/>
      <path class="cls-2" d="M277.74,386.24c2.4-.71,4.8-1.43,8.11-2.41-4.79,6.34-9.13,12.08-13.62,18.02,1.62.81,3.21,1.61,4.82,2.41-3.71,5.31-3.67,5.18-9.3,3.37-5.88-1.89-11.86-3.48-17.79-5.23-1.22-.36-2.4-.83-3.61-1.26,1.75-4.33,2.51-4.91,6.49-4.12,5.6,1.11,11.16,2.45,16.73,3.69.17-.28.33-.56.5-.84-2.22-1.29-4.44-2.58-7.01-4.07,4.28-5.44,8.66-11.04,13.11-16.59.33-.41,1.28-.83,1.64-.64,3.06,1.52,4.2-.79,5.73-2.6,2.22-2.63,4.55-5.18,6.93-7.67.52-.54,1.45-.68,2.19-1,.21.28.43.56.64.84-5.3,5.86-10.59,11.72-15.89,17.58.11.17.22.34.32.51Z"/>
      <path class="cls-2" d="M346.45,380.45c-2.65,4.06-5.67,7.27-7,11.07-1.56,4.49-7.81,3.96-7.98,9.27,1.78-.89,3.69-1.84,6.17-3.08.04.81.44,1.88.07,2.41-4.08,5.84-8.28,11.6-12.17,17-3.25-2.18-6.11-4.1-9.31-6.24.72-1.01,1.74-2.48,2.8-3.9,2.72-3.65,5.51-7.26,8.19-10.94,1.37-1.88,2.48-3.87,5.45-2.54.5.22,1.83-.81,2.44-1.55,2.7-3.25,5.19-6.68,7.94-9.88.69-.8,2.07-1,3.4-1.6Z"/>
      <path class="cls-2" d="M313.9,395.41c1.97-.83,3.94-1.66,5.91-2.5.26.37.52.74.78,1.11-4.45,6.03-8.9,12.06-13.22,17.92-3.13-2.14-6.02-4.11-9.24-6.31,4.1-5.36,8.47-11.11,12.92-16.8.35-.45,1.46-.82,1.93-.6,2.58,1.19,3.69-.48,4.99-2.18,2.43-3.18,4.91-6.34,7.55-9.35.61-.69,1.95-.75,3.18-.38-5.08,6.15-10.15,12.31-15.23,18.46.14.21.29.41.43.62Z"/>
      <path class="cls-2" d="M311.09,371.72c-2.11,2.34-4.36,4.57-6.26,7.08-1.07,1.41-1.46,3.3-2.32,4.9-.38.71-1.21,1.77-1.73,1.72-3.05-.33-3.16,2.31-4.56,3.62.15.35.3.7.45,1.05,1.81-.42,3.63-.84,6.46-1.5-4.87,6.54-9.31,12.51-13.6,18.29-3.05-2.15-5.86-4.12-9.01-6.33,1.57-2.06,3.5-4.62,5.45-7.15,2.12-2.75,4.32-5.43,6.37-8.23,1.07-1.46,2.07-2.2,4.06-1.67.87.23,2.39-.56,3.08-1.36,2.84-3.27,5.39-6.79,8.25-10.05.67-.76,2.11-.85,3.2-1.25.05.3.11.61.16.91Z"/>
      <path class="cls-2" d="M309.59,429.55c9.66,8.61,18.96,17.35,26.29,27.96-15.98-15.09-32.28-29.76-50.67-42.07.82.15,1.7.16,2.46.47,1.73.71,3.02.44,4.33-1,.55-.6,2.15-1.08,2.7-.73,5.89,3.78,11.67,7.73,17.7,11.79-1.25,1.58-1.9,2.41-2.82,3.57Z"/>
      <path class="cls-2" d="M356.31,470.53c-1.16-.42-2.13-.78-3.62-1.32,13.3-18.43,26.43-36.62,39.56-54.8.39.24.78.48,1.16.72-1.91,3.24-3.72,6.55-5.76,9.72-3.64,5.68-7.39,11.29-11.15,16.88-2.3,3.42-4.71,6.77-7.08,10.14-4.36,6.21-8.72,12.41-13.12,18.66Z"/>
      <path class="cls-2" d="M339.75,419.03c-1.74-.75-3.48-1.5-5.67-2.45,1.9-2.58,3.73-5.06,5.56-7.54,2.06-2.79,4.18-5.53,6.17-8.37,1.24-1.78,2.34-3.31,4.95-2.2.55.23,1.91-.64,2.46-1.35,3.01-3.81,5.88-7.73,8.92-11.76.99.59,1.79,1.08,2.58,1.56-9.2,10.19-17.36,20.97-25,32.15v-.04Z"/>
      <path class="cls-2" d="M636.56,46.27c-6.76-6.17-13.15-12.85-20.42-18.39-7.27-5.54-15.42-9.95-23.72-15.19,1.63,0,3.18-.41,4.38.06,13.98,5.52,25.23,14.69,34.57,26.33,1.89,2.35,3.54,4.89,5.2,7.19Z"/>
      <path class="cls-2" d="M343.93,456.01c13.75-19,27.5-38.01,41.25-57.01.25.18.5.36.75.54-13.72,19.03-27.43,38.05-41.15,57.08-.29-.21-.57-.41-.86-.62Z"/>
      <path class="cls-2" d="M339.74,419.06c.91-.74,1.92-1.39,2.72-2.23,4.32-4.6,8.59-9.25,13.44-14.49-.08,1.44.17,2.46-.22,3.02-3.98,5.61-8.07,11.14-12.13,16.71-1.41-1.14-2.59-2.11-3.79-3.06-.02.02-.03.05-.03.05Z"/>
      <path class="cls-2" d="M432.52,222.54c-5.49,6.65-10.99,13.31-16.48,19.96,3.44-8.22,10.44-13.71,15.03-21.06.48.37.97.73,1.45,1.1Z"/>
      <path class="cls-2" d="M467.17,227.51c2.42-4.85,4.81-9.72,7.32-14.52.24-.46,1.21-.53,1.84-.78.1.73.54,1.67.24,2.16-2.77,4.58-5.67,9.08-8.53,13.6-.29-.16-.58-.31-.87-.47Z"/>
      <path class="cls-2" d="M449.34,199c-.3,7.84-7.93,10.1-10.93,15.87-.35-.27-.7-.54-1.06-.81,4-5.02,7.99-10.04,11.99-15.07Z"/>
      <path class="cls-2" d="M552.74,54.08c-2.56,3.22-5.08,6.47-7.7,9.63-.98,1.18-2.21,2.16-3.73,2.82,3.23-4.13,6.45-8.26,9.72-12.36.47-.59,1.26-2.07,1.71.08,0,0,0-.18,0-.18Z"/>
      <path class="cls-2" d="M424.14,371.71c.4,2.61-.93,4.71-6.16,9.53-.2-3.56.27-4.02,3.54-6,1.18-.72,1.79-2.36,2.62-3.52Z"/>
      <path class="cls-2" d="M410.52,238.22c1.02-1.6,2.03-3.2,3.05-4.8.97-.54,1.94-1.07,2.92-1.61-1.34,2.31-2.61,4.67-4.05,6.92-.92,1.44-1.68,1.17-1.92-.51Z"/>
      <path class="cls-2" d="M539.16,123.29c2.04-2.66,4.07-5.33,6.11-7.99.35.27.71.55,1.06.82-2.07,2.64-4.14,5.27-6.21,7.91-.32-.25-.64-.49-.96-.74Z"/>
      <path class="cls-1" d="M416.49,231.81c-.97.54-1.94,1.07-2.92,1.61,1.85-2.78,3.7-5.57,5.54-8.35-.43,1.81-.86,3.63-1.29,5.44-.45.43-.89.87-1.34,1.3Z"/>
      <path class="cls-2" d="M555.09,80.35c2.38-3.58,4.77-7.17,7.15-10.75l.75.5c-2.36,3.59-4.72,7.18-7.07,10.77-.28-.17-.55-.35-.83-.52Z"/>
      <path class="cls-2" d="M417.83,230.51c.43-1.81.86-3.63,1.29-5.44.15-.04.31-.08.46-.12,1.06-.67,2.13-1.33,3.19-2,.18.11.37.22.55.33-1.83,2.41-3.66,4.82-5.49,7.23Z"/>
      <path class="cls-2" d="M519.7,125.38c2.08-3.44,4.17-6.88,6.25-10.31.39.27.79.54,1.18.81-2.5,3.14-5.01,6.27-7.5,9.41,0,0,.07.09.07.09Z"/>
      <path class="cls-2" d="M552.74,54.08s0,.18,0,.18c1.19-2.17,2.38-4.34,3.56-6.51.35.22.7.44,1.05.66-.67,2.49-1.92,4.58-4.62,5.67Z"/>
      <path class="cls-2" d="M91.19,232.05c.81-.65,1.72-1.2,2.41-1.96,5.6-6.16,11.24-12.3,16.7-18.59,1.69-1.95,3.28-2.98,5.73-1.62.69.79,1.3,1.67,2.07,2.37,35.34,31.98,70.7,63.95,106.06,95.91,1.02.92,2.13,1.76,3.47,2.87-9.23,11.33-18.47,22.66-28.08,34.47-1.13-.66-2.53-1.18-3.56-2.11-26.44-23.68-52.84-47.42-79.27-71.13-9.37-8.41-18.8-16.75-28.13-25.21-1.03-.93-1.5-2.45-2.29-3.66-.59-.91-1.28-1.76-1.94-2.66,2.22-2.83,4.53-5.76,6.83-8.69Z"/>
      <path class="cls-1" d="M453.75,122.59c9.24-10.69,24.41-15.46,37.88-10.77,11.87,4.14,21.31,11.32,26.76,22.48,3.17,6.49,4.51,13.97,5.94,21.16.81,4.05.15,8.4.05,12.7.13-4.79-4.37-4.45-7.05-6.51.36-.75.74-1.56,1.13-2.37-.2-.09-.34-.2-.38-.17-3.26,2.46-4.42-.04-6.5-2.09-1.75-1.74-4.96-1.92-7.33-3.17-1.39-.74-2.39-2.22-4.04-3.84-.06,0-1.1.27-1.88-.06-1.29-.55-3.04-1.23-3.49-2.32-1.6-3.83-4.49-2.48-7.34-2.02.14-1.41.26-2.57.39-3.77-3.87.74-13.2-3.75-14.76-7.15-.75.35-1.5.7-2.33,1.09-.13-.31-.22-.61-.36-.87-.69-1.23-.69-2.4-2.97-2.86-3.04-.61-5.73-3.17-8.45-5.06-1.81-1.26-3.41-2.81-5.29-4.38Z"/>
      <path class="cls-1" d="M430.87,265.17c-1.9,2.66-3.52,5.57-5.75,7.92-8.19,8.63-13.15,19.2-18.59,29.55-4.47,8.5-9.82,16.46-16.59,23.37,2.16-3.81,4.35-7.6,6.47-11.44,3.23-5.88,6.43-11.77,9.6-17.68,2.44-4.55,4.54-9.32,7.29-13.67,3.9-6.17,8.16-12.13,12.54-17.98.71-.94,2.84-.82,4.31-1.18.24.37.48.74.72,1.11Z"/>
      <path class="cls-1" d="M406.8,308.14c6.2-7.87,12.33-15.8,18.62-23.6,3.54-4.38,7.49-8.43,10.98-12.85,3.97-5.03,5.51-10.96,5.58-17.32.02-1.3.51-2.59,1.09-3.82,1.63,4.68,1.04,8.9-1.03,13.41-4.53,9.89-11.74,17.54-19.05,25.3-4.66,4.95-8.42,10.73-12.59,16.14-.89,1.16-1.8,2.31-2.7,3.47-.3-.24-.61-.48-.91-.72Z"/>
      <path class="cls-1" d="M438.43,259.41c1.49,3.01-.05,5.48-1.13,7.66-2.45,4.94-5.58,9.44-10.4,12.58-1.65,1.07-2.79,2.98-4.08,4.57-3.33,4.1-6.61,8.24-10.08,12.24,7.06-13.38,20.51-22.26,25.7-37.04Z"/>
      <path class="cls-1" d="M456.04,245.57c-.23-.58-.46-1.16-.82-2.06-1.18,1.48-2.18,2.75-3.39,4.27-1.03-8.31,4.65-22.54,9.72-24.64-1.86,7.53-3.7,14.96-5.53,22.39,0,.01.02.04.02.04ZM452.78,241.89c3.25-1.28,4.31-3.58,3.61-7.04-1.2,2.35-2.28,4.45-3.61,7.04Z"/>
      <path class="cls-1" d="M390.14,263.05c-.39,1.41-.41,3.1-1.23,4.17-4.22,5.46-8.64,10.76-13.02,16.1-.23.28-.67.39-1.22.38,4.17-7.65,8.73-14.96,15.53-20.6l-.06-.06Z"/>
      <path class="cls-1" d="M414.02,254.75c-4.29,5.63-8.58,11.27-12.87,16.9-.38-.29-.76-.59-1.15-.88,4.26-5.66,8.52-11.31,12.78-16.97.41.32.83.63,1.24.95Z"/>
      <path class="cls-1" d="M390.21,263.11c4.17-5.37,8.34-10.74,12.51-16.12.64-.83,1.24-1.69,2.44-2.25-.22.59-.33,1.26-.68,1.75-3.72,5.17-7.41,10.35-11.28,15.41-.56.73-1.99.8-3.03,1.16-.01,0,.05.05.05.05Z"/>
      <path class="cls-1" d="M373.19,298.15c-.48,1.48-.7,3.11-1.48,4.4-1.79,2.96-3.86,5.75-6.43,8.18,2.66-4.16,5.32-8.32,7.96-12.5-.01-.02-.05-.08-.05-.08Z"/>
      <path class="cls-1" d="M454.85,205.74c-2.99,4.29-5.98,8.59-8.97,12.88-.34-.26-.68-.52-1.02-.77,3.35-4,6.7-8.01,10.05-12.02,0,0-.06-.09-.06-.09Z"/>
      <path class="cls-1" d="M394.5,278.92c-2.07,2.87-4.14,5.73-6.2,8.6-.21-.15-.42-.3-.63-.46,2.08-2.91,4.17-5.82,6.25-8.72.2.2.39.39.59.59Z"/>
      <path class="cls-1" d="M428.29,155.49h5.16c-2.02,2.88-3.4,2.98-5.16,0Z"/>
      <path class="cls-1" d="M433.93,256.57c-.82,1.98-1.64,3.97-2.46,5.95-.33-.14-.67-.29-1-.43.86-1.97,1.73-3.93,2.59-5.9.29.13.58.25.87.38Z"/>
      <path class="cls-2" d="M452.78,241.89c1.33-2.59,2.41-4.69,3.61-7.04.7,3.46-.37,5.76-3.61,7.04Z"/>
    </g>
  </g>
</svg>