<?xml version="1.0" encoding="UTF-8"?>
<svg id="Livello_2" data-name="Livello 2" xmlns="http://www.w3.org/2000/svg" viewBox="0 0 1783.46 454.21">
  <defs>
    <style>
      .cls-1 {
        fill: #05784d;
        stroke-width: 0px;
      }
    </style>
  </defs>
  <g id="Livello_1-2" data-name="Livello 1">
    <g>
      <path class="cls-1" d="M0,447.56c39.14-1.64,66.02-22.7,88.82-50.65,14.58-17.88,25.21-38.34,37.09-57.97,19.98-33.02,39.67-66.2,59.65-99.22,1.94-3.21,1.79-5.4-.13-8.48-11.84-18.98-24.36-37.4-41.64-51.99-11.05-9.33-23.07-16.54-38.42-14.92-15.54,1.64-28.08,8.77-37.84,20.89-.94,1.16-1.8,2.39-2.71,3.58-.07.09-.3.05-.46.08,11.14-32.69,34.32-45.01,65.15-36.86,23.64,6.25,41.1,21.17,55.84,39.86,4.65,5.89,8.66,12.21,12.34,18.74,1.77,3.15,2.95,3.93,5.2.15,34.68-58.14,69.44-116.23,104.28-174.27,2.21-3.68.96-4.38-2.56-4.76-10.03-1.1-19.52-4.2-28.62-8.42-8.74-4.05-15.39-10.34-19.69-19.06-1.44-2.93-1.07-4.21,2.48-4.27,4.08-.07,7.41.49,10.8,3.57,7.87,7.16,18.03,9.74,28.16,12,7,1.56,14.12,2.37,21.25,3.01,3.31.3,6.64.58,9.92,1.12,18.12,3.02,23.94,12.27,18.58,29.7-26.56,86.41-53.11,172.83-79.85,259.19-1.35,4.36-.62,6.9,2.64,9.86,17.36,15.73,41.14,13.88,56.09-4.54,3.26-4.02,5.62-8.58,8.01-13.65-1.83,32.55-22.63,51.37-55.1,44.29-5.89-1.28-11.5-3.42-16.65-6.55-2.67-1.63-3.66-.8-4.49,1.92-12.7,41.54,14.83,80.08,58.64,82.03,11.94.53,23.58-1.07,34.98-4.58,1.52-.47,2.98-1.52,5.33-.82-9.63,7.56-20.11,12.24-31.62,14.77-36.63,8.04-74.71-10.04-89.43-42.54-8.23-18.17-8.89-37.15-1.99-55.41,4.85-12.84,3.24-22.6-4.78-33.27-8.57-11.4-15.52-24.02-23.17-36.1q-3.76-5.94-7.27-.1c-23.29,38.61-46.55,77.23-69.89,115.81-12.57,20.77-26.98,40.05-46.49,54.94-19.91,15.19-41.93,22.95-67.28,18.14-4.9-.93-9.69-2.31-15.16-5.22ZM318.77,63.71c-.9,1.12-1.48,1.69-1.88,2.37-33.41,56.01-66.8,112.03-100.27,168.01-1.5,2.5-1.42,4.32.15,6.75,8.03,12.44,15.87,25.01,23.78,37.53,1.6,2.53,3.17,5.08,4.81,7.59,1.25,1.91,2.42,2.42,3.17-.39.25-.96.62-1.89.92-2.84,22.35-69.95,44.7-139.89,67.03-209.85.89-2.78,2.28-5.45,2.29-9.16Z"/>
      <path class="cls-1" d="M340.14,252.79c-2.04,3.51-4.62,6.82-6.02,10.57-3.97,10.68-11.02,15.32-22.43,13.02-2.08-.42-4.33-.21-6.48-.03-3.99.33-4.62-.81-2.55-4.3,7.06-11.86,13.91-23.85,20.84-35.79,37.39-64.46,74.8-128.91,112.08-193.44,2.07-3.59,4.25-5.37,8.56-5.05,5.3.4,10.66.23,15.98.05,3.87-.13,4.22.95,2.34,4.16-10.69,18.22-21.23,36.53-31.82,54.81-8.34,14.39-16.7,28.77-25.03,43.17-.65,1.12-1.67,2.1-1.55,3.99,1.99-.19,3.07-1.76,4.37-2.77,6.57-5.07,13.69-8.95,22.13-9.56,17.39-1.26,30.35,9.84,32.53,27.45,1.25,10.1.31,20-2.92,29.54-11.71,34.59-31.02,63.55-63.1,82.61-10.56,6.28-21.92,10.42-34.53,10-13.21-.44-20.63-7.71-21.1-20.88-.09-2.4-.01-4.8-.01-7.2-.43-.11-.85-.23-1.28-.34ZM441.25,165.36c0-1.16.1-2.34-.01-3.49-1.11-11.53-6.87-15.59-17.98-12.38-10.49,3.03-19.29,9.08-26.89,16.68-20.71,20.72-33.54,46.03-41.95,73.76-1.05,3.46-1.49,7.15-1.32,10.85.52,10.72,7.62,15.95,17.98,13.14,6.21-1.69,11.67-4.91,16.61-8.9,22.09-17.81,38.64-39.73,48.71-66.35,2.84-7.49,4.58-15.27,4.85-23.31Z"/>
      <path class="cls-1" d="M808.53,156.07c3.22-5.52,6.62-10.94,9.58-16.6,1.6-3.06,3.57-4.2,7.02-4.06,6.8.27,13.62.08,20.43.08.61,2.38-1.02,3.67-1.87,5.14-17.48,30.23-35.01,60.43-52.55,90.62-3.81,6.56-6.77,13.34-6.44,21.15.33,7.86,4.78,12.12,12.7,12.26,8.49.14,15.37-3.72,21.8-8.68,2.06-1.59,3.98-3.35,6.27-5.3-3.9,19.82-22.42,33.13-41.55,30.28-11.48-1.71-19.06-10.83-20.65-24.81-.16-1.44.29-2.98-.7-4.39-2.16.07-2.9,2.02-4.08,3.25-7.16,7.47-14.67,14.51-23.6,19.87-8.4,5.04-17.41,7.59-27.21,5.94-12.25-2.06-21.19-12.16-23.53-25.94-2.22-13.04-.02-25.61,4.67-37.65,12.36-31.77,30.65-58.98,61.25-76.14,10.27-5.76,21.22-9.58,33.21-9.55,14.29.03,22.17,7.28,23.59,21.59.08.81.26,1.61.39,2.42.43.17.86.34,1.28.51ZM793.93,164.25c-.12-12.64-7.07-17.97-17.85-15.35-4.76,1.15-9.16,3.17-13.07,6.01-28.01,20.36-47.29,46.83-55.87,80.61-1.68,6.62-2.37,13.45-.52,20.23,1.88,6.87,5.87,9.56,12.94,8.67,3.83-.49,7.39-1.9,10.84-3.59,7.84-3.86,14.76-9.06,20.78-15.32,19.54-20.28,32.15-44.59,40.82-71.1,1.22-3.74,1.5-7.8,1.93-10.16Z"/>
      <path class="cls-1" d="M459.05,244.58c.36-18.35,5.57-34.59,14.56-49.47,13.11-21.69,30.35-39.55,52.13-52.77,9.92-6.02,20.5-10.46,32.32-10.75,17.12-.41,27.92,8.6,31.05,25.48,2.37,12.8.55,25.28-3.61,37.35-11.84,34.33-34.18,60.13-65.4,78.3-8.38,4.88-17.51,8.12-27.4,8.46-19.28.66-31.2-9.72-33.16-28.91-.29-2.81-.35-5.64-.47-7.7ZM568.74,164.68c.22-13.64-7.57-19.19-20.45-14.49-6.66,2.43-12.48,6.32-17.8,10.89-22.26,19.08-37.99,42.57-47,70.46-2.15,6.65-3.65,13.52-2.77,20.6,1.27,10.27,7.59,14.42,17.59,11.68,7.39-2.03,13.67-6.12,19.41-10.97,22.4-18.92,38.29-42.3,47.66-70.08,1.97-5.86,3.17-11.89,3.38-18.09Z"/>
      <path class="cls-1" d="M700.79,162.8c-3.27-13.1-9.76-16.75-22.03-13.11-7.8,2.32-14.58,6.54-20.76,11.67-20.75,17.24-36.2,38.43-46.49,63.33-3.07,7.43-5.09,15.14-4.53,23.31.58,8.4,4.84,13.55,13.01,15.51,11.49,2.76,21.68-1,31.46-6.5,3.01-1.69,5.85-3.68,8.81-5.56.22.52.52.88.43,1.08-7.3,16.99-26,29.15-44.34,28.87-16.04-.25-28.24-11.09-31.25-27.56-2.08-11.38.11-22.26,4.02-32.79,14.25-38.36,38.8-67.52,77.02-83.82,10.76-4.59,22.16-7.32,34.09-4.74,1.46.31,2.92.71,4.3,1.26,8.87,3.54,9.71,5.94,4.99,14.05-2.76,4.73-5.52,9.46-8.75,15Z"/>
      <path class="cls-1" d="M1327.06,275.64c-6.97,1.65-11.56.18-15.74-5.64-10.67-14.85-22.21-29.07-33.26-43.65-2.01-2.65-4.15-3.81-7.49-3.75-11.15.17-22.3.18-33.45,0-3.65-.06-4.88,1.04-4.82,4.82.21,14.46.08,28.93.09,43.39,0,2.83.56,5.54-4.05,5.53-4.12-.01-5.02-1.55-5.01-5.27.09-39.57.09-79.14,0-118.71,0-3.54.87-4.98,4.75-4.93,17.47.2,34.95,0,52.43.16,8.94.08,17.48,2.15,25.3,6.65,11.51,6.62,17.43,16.71,17.55,29.88.13,13.41-5.83,23.62-17.52,30.36-4.94,2.85-10.25,4.81-15.88,5.68-3.93.6-4.27,1.76-1.8,4.9,12.53,15.96,24.87,32.06,37.28,48.12.49.64.89,1.35,1.62,2.46ZM1232.38,184.97c0,8.32.12,16.64-.06,24.95-.07,3.25.61,4.75,4.33,4.7,14.32-.21,28.64,0,42.96-.17,7.08-.08,13.83-1.92,20.06-5.35,12.17-6.7,17.61-19.95,13.45-33.24-4.17-13.31-14.8-18.31-27.39-19.69-16.41-1.8-32.94-.43-49.41-.8-3.07-.07-4.03,1.18-3.98,4.14.14,8.48.05,16.97.05,25.45Z"/>
      <path class="cls-1" d="M1426.88,278.38c-37.05-.18-64.5-28.76-64.23-66.88.27-38.19,28.19-66.3,65.68-66.1,36.38.19,63.94,28.82,63.87,66.35-.07,38.08-28.24,66.81-65.32,66.63ZM1483.2,212.06c-.44-3.96-.66-7.96-1.37-11.87-4.71-26.09-24.94-44.76-50.64-46.86-24.42-2-46.84,12.63-55.53,36.36-3.72,10.17-4.49,20.63-3.2,31.41,3.81,31.78,32.99,53.86,64.49,48.56,27.15-4.57,45.96-28.13,46.24-57.6Z"/>
      <path class="cls-1" d="M1176.63,237.43c0,6.15-.03,12.31.02,18.46.02,2.08-.28,3.81-2.08,5.27-23.71,19.2-55.61,22.54-79.25,10.37-24.83-12.79-34.34-34.84-33.84-61.54.58-31.11,20.01-56.46,48.2-62.83,20.88-4.72,40.73-1.57,58.24,11.68,1.66,1.26,5.19,2.15,2,5.5-2.16,2.27-3.28,4.78-7.36,1.7-18.8-14.18-39.51-17.47-61.03-7.34-18.52,8.72-27.93,24.79-30.39,44.63-2.11,17.02.78,33.29,11.71,47.19,15.09,19.18,41.96,25.22,67.2,15.43.15-.06.3-.15.45-.21,17.02-6.75,17.59-7.56,17.59-25.46,0-4.49-.17-8.99.05-13.47.17-3.36-1.29-4.34-4.41-4.3-8.32.11-16.65-.06-24.98.07-3.2.05-4.81-.63-4.82-4.37,0-3.9,2.13-3.72,4.79-3.71,11.32.05,22.65.12,33.97-.04,3.08-.04,4.08.98,3.99,4-.17,6.32-.05,12.64-.05,18.96Z"/>
      <path class="cls-1" d="M1688.64,211.59c0-19.79.09-39.59-.08-59.38-.03-3.7.96-4.9,4.74-4.76,18.12.66,36.33-1.32,54.38,1.14,26.79,3.65,41.97,26.98,33.38,51.48-6.04,17.22-20.06,24.46-37.03,27.02-13.57,2.05-27.26.78-40.9.86-4.31.03-5.81,1.1-5.71,5.57.27,12.64-.02,25.28.17,37.92.06,3.67-1.01,4.88-4.78,4.89-3.86,0-4.22-1.74-4.2-4.86.1-19.96.05-39.92.05-59.88ZM1697.5,187.95c0,8.97.15,17.94-.07,26.9-.09,3.84,1.09,5.3,5.07,5.22,10.3-.22,20.61,0,30.92-.12,7.69-.08,15.22-1.13,22.31-4.43,14.82-6.88,21.71-22,17.09-37.69-3.56-12.12-14.69-20.25-29.93-21.77-13.77-1.37-27.58-.33-41.36-.69-3.53-.09-4.09,1.77-4.07,4.68.08,9.3.03,18.6.03,27.9Z"/>
      <path class="cls-1" d="M1534.78,189.79c0-12.31.05-24.61-.04-36.92-.02-3.28-.06-5.52,4.56-5.53,4.92-.01,4.32,2.76,4.32,5.76-.01,22.12-.05,44.24.03,66.36.01,4.31.22,8.65.76,12.93,3.47,27.55,23.88,40.67,49.85,37.48,24.07-2.95,36.96-19.03,37.22-45.6.23-23.78.18-47.57-.04-71.35-.04-4.44,1.19-5.88,5.59-5.5,2.72.24,3.31,1.29,3.3,3.69-.1,25.61.57,51.25-.42,76.83-.83,21.64-9.95,39.55-31.8,46.79-21.62,7.17-42.61,5.37-59.64-11.95-9.99-10.16-13.26-23.24-13.57-37.07-.27-11.97-.06-23.95-.06-35.92-.02,0-.05,0-.07,0Z"/>
      <path class="cls-1" d="M960.76,212.09c0,42.25,0,84.49,0,126.74,0,1.33-.04,2.66-.03,3.99.02,1.79-1.06,2.24-2.59,2.2-1.51-.03-3.16.15-3.34-2.01-.11-1.32-.12-2.66-.12-3.99,0-84.83-.02-169.65.08-254.48,0-2.16-1.76-5.78,2.94-5.94,2-.07,3.21.47,3.07,2.74-.08,1.33,0,2.66,0,3.99,0,42.25,0,84.49,0,126.74Z"/>
    </g>
  </g>
</svg>