<?xml version="1.0" encoding="UTF-8"?>
<svg id="Livello_2" data-name="Livello 2" xmlns="http://www.w3.org/2000/svg" viewBox="0 0 130.09 84.28">
  <defs>
    <style>
      .cls-1 {
        fill: #fff;
        stroke-width: 0px;
      }
    </style>
  </defs>
  <g id="Livello_1-2" data-name="Livello 1">
    <path class="cls-1" d="M65.11,84.28c-18.83,0-37.66.02-56.49,0-6.57,0-8.51-1.72-8.54-8.17C-.02,53.44-.02,30.77.06,8.11.08,2,2.14.04,8.3.03c38-.05,75.99-.05,113.99,0,5.46,0,7.69,2.08,7.72,7.55.11,23.16.11,46.33.03,69.49-.02,5.42-2.09,7.17-7.92,7.18-19,.04-38,.02-56.99.02ZM17.64,7.55c-.13.35-.26.7-.4,1.05,14.96,11.9,29.92,23.8,44.86,35.72,2.18,1.74,3.67.33,5.26-.91,6.71-5.21,13.42-10.41,20.12-15.62,8.35-6.5,16.7-13,25.99-20.24H17.64ZM17.26,76.53h96.51c-13.11-9.54-25.11-18.21-37.03-26.99-2.68-1.98-4.73-.93-6.61.93-4.01,3.97-7.93,4.46-11.97.12-2.42-2.6-4.61-2.15-7.33-.07-9.66,7.38-19.53,14.49-29.26,21.78-1.51,1.13-3.56,1.82-4.31,4.22ZM122.72,42.05c0-9.33,0-18.65,0-27.98,0-2.76-.67-3.94-3.37-1.82-12.06,9.44-24.14,18.87-36.27,28.22-2.44,1.88-2.23,3.08.21,4.83,12.04,8.64,23.97,17.43,35.97,26.14.77.56,1.89,1.34,2.6,1.14,1.44-.41.85-1.98.85-3.05.05-9.16.03-18.32.02-27.48ZM7.9,41.85c0,8.81-.01,17.62.01,26.44,0,1.13-.38,2.54.7,3.25,1.22.8,2.16-.43,3.04-1.08,11.1-8.19,22.13-16.49,33.29-24.59,3.2-2.32,2.64-3.9-.09-6.04-10.99-8.61-21.9-17.32-32.85-25.99-.89-.7-1.77-1.89-2.99-1.43-1.61.6-1.08,2.27-1.09,3.51-.05,8.65-.03,17.29-.03,25.94Z"/>
  </g>
</svg>