<?xml version="1.0" encoding="UTF-8"?>
<svg id="Livello_2" data-name="Livello 2" xmlns="http://www.w3.org/2000/svg" viewBox="0 0 116.8 117.39">
  <defs>
    <style>
      .cls-1 {
        fill: #fff;
        stroke-width: 0px;
      }
    </style>
  </defs>
  <g id="Livello_1-2" data-name="Livello 1">
    <path class="cls-1" d="M.03,58.74c0-7.94-.05-15.89.01-23.83C.2,15.86,10.15,3.33,29,1.51c19.9-1.93,40.05-2.18,59.94.27,16.45,2.03,26.05,13.95,27.02,30.62,1.04,17.85,1.21,35.71-.01,53.55-1.28,18.55-13.87,30.71-32.78,31.15-16.71.39-33.43.38-50.14.01C13.26,116.68.27,103.21.05,83.56c-.09-8.27-.02-16.55-.01-24.82ZM58.64,12.1c-9.58.31-19.19-.8-28.75.74-11.42,1.84-17.54,8.3-18.48,19.84-1.43,17.51-1.27,35.03,0,52.55.85,11.78,7.58,18.95,19.43,19.96,18,1.55,36.02,1.41,54.03.03,11.72-.9,18.96-8.47,19.77-20.25,1.15-16.7,1.12-33.38.08-50.09-.92-14.74-8.33-22.32-23.24-22.76-7.61-.22-15.23-.04-22.84-.04Z"/>
    <path class="cls-1" d="M27.87,58.78c.05-16.76,13.6-30.16,30.46-30.11,16.47.05,30.35,14.2,30.09,30.71-.26,16.33-14.14,29.98-30.44,29.93-16.78-.05-30.16-13.61-30.11-30.53ZM76.72,58.84c.11-10.18-8.23-18.64-18.55-18.82-10.3-.18-18.82,8.36-18.92,18.95-.09,10.55,7.71,18.32,18.57,18.51,10.92.19,18.77-7.56,18.89-18.64Z"/>
    <path class="cls-1" d="M96.56,28.13c-.14,3.99-3.9,7.32-8.02,7.11-3.98-.21-7.04-3.63-6.82-7.62.22-3.86,3.77-7.06,7.65-6.89,3.96.18,7.33,3.64,7.19,7.39Z"/>
  </g>
</svg>