<?xml version="1.0" encoding="UTF-8"?>
<svg id="Livello_2" data-name="Livello 2" xmlns="http://www.w3.org/2000/svg" viewBox="0 0 98.65 98.49">
  <defs>
    <style>
      .cls-1 {
        fill: #fff;
        stroke-width: 0px;
      }
    </style>
  </defs>
  <g id="Livello_1-2" data-name="Livello 1">
    <path class="cls-1" d="M54.81,41.49c7.31-10.06,16.7-11.31,27.11-9.31,8.05,1.55,12.7,6.6,14.82,14.25,1.11,4,1.75,8.1,1.78,12.25.08,11.75-.06,23.51.13,35.26.05,3.48-1.06,4.75-4.55,4.52-3.79-.25-7.62-.26-11.41,0-3.63.26-4.46-1.29-4.42-4.63.14-11.09.2-22.19-.09-33.27-.23-8.72-4.74-12.37-13.1-11.38-5.12.6-7.96,3.57-9.08,8.45-1.72,7.53-.77,15.17-.97,22.76-.12,4.63-.2,9.28.05,13.9.18,3.37-1.17,4.49-4.33,4.14-1.47-.16-2.98-.09-4.47-.1q-11.3-.06-11.27-11.62c.02-16.22.11-32.45-.07-48.67-.05-3.99.93-5.94,5.22-5.31,1.62.24,3.3.04,4.96.04q8.35,0,9.69,8.72Z"/>
    <path class="cls-1" d="M1.62,65.11c0-9.27.19-18.56-.09-27.82-.12-3.87,1.21-4.89,4.81-4.59,3.45.29,6.97.28,10.42,0,3.59-.29,4.96.78,4.93,4.62-.18,18.88-.16,37.76-.04,56.64.02,3.55-1.32,4.66-4.68,4.49-3.8-.2-7.62-.18-11.42,0-3.02.14-4.03-1-3.99-4.02.15-9.77.06-19.54.06-29.31Z"/>
    <path class="cls-1" d="M23.21,11.64c.06,6.38-5.15,11.71-11.5,11.77C5.35,23.47.12,18.3,0,11.85-.11,5.56,5.22.07,11.51,0c6.23-.07,11.64,5.31,11.7,11.64Z"/>
  </g>
</svg>