<?xml version="1.0" encoding="UTF-8"?>
<svg id="Livello_2" data-name="Livello 2" xmlns="http://www.w3.org/2000/svg" viewBox="0 0 1301.92 193.54">
  <defs>
    <style>
      .cls-1 {
        fill: #565da5;
        stroke-width: 0px;
      }
    </style>
  </defs>
  <g id="Livello_1-2" data-name="Livello 1">
    <g>
      <path class="cls-1" d="M254.88,67.99c0-20.45.22-39.6-.12-58.74-.12-6.68,1.72-9.83,8.87-9.17,5,.46,10.08.27,15.12.05,4.99-.21,6.9,2.03,6.82,6.85-.14,7.9-.02,15.81-.02,23.71,0,50.3,0,100.61,0,150.91,0,10-.18,10.13-9.96,10.19-1.68,0-3.36,0-5.04,0-11.57,0-11.64,0-14.22-12.27-.87-4.16-1.9-6.83-6-2.34-25.17,27.55-87.83,21.41-102.55-28.08-8.73-29.34-6.3-57.39,15.81-81.17,18.69-20.11,61.64-29.18,91.3.05ZM254.93,121.5c-.37-6.48-1.03-13.21-3.44-19.48-5.8-15.12-16.62-24.5-33.06-25.99-15.08-1.36-27.48,4.24-35.56,17.17-10.14,16.23-10.26,33.67-3.05,50.89,10.22,24.4,42.91,30.77,61.93,12.3,9.69-9.41,12.66-21.63,13.19-34.9Z"/>
      <path class="cls-1" d="M1259.06,171.88c-13.31,16.02-29.36,21.99-48.15,21.35-6.5-.22-12.91-1.2-19.13-3.14-18.74-5.83-29.61-19.12-30.21-36.76-.68-19.93,8.96-34.52,27.72-41.76,7.9-3.05,16.12-4.76,24.59-4.87,11.76-.15,23.54-.39,35.29-.02,6.42.2,7.87-2.62,7.33-8.22-1.79-18.56-13.7-23.72-30.87-23.88-12.5-.11-23.74,4.1-29.09,17.13-.69,1.68-1.85,2.96-3.62,3.14-7.9.8-15.83.88-23.71,0-3.65-.4-3.2-3.5-2.62-6.23,3.22-15.17,12.07-26.05,26.08-32.27,20.13-8.95,41.05-9.7,61.88-2.98,21.34,6.88,32.29,22.9,32.61,46.46.24,17.24.21,34.5-.01,51.74-.09,7.37,1.19,12.97,10.25,12.91,2.86-.02,4.31,1.77,4.36,4.63.03,1.92.13,3.83.09,5.75-.43,18.38,3.8,17.33-18.23,16.78-11.98-.3-21.66-4.83-24.56-19.75ZM1217.99,168.61c21.94-.06,35.69-11.58,38.29-31.12.68-5.12-.66-7.67-6.31-7.56-11.51.23-23.03.1-34.54.12-4.16,0-8.05,1.12-11.8,2.84-7.17,3.29-10.16,9.06-10.13,16.7.03,7.42,3.24,12.8,9.97,16.1,4.87,2.39,10.03,3.13,14.53,2.91Z"/>
      <path class="cls-1" d="M97.03,172.88c-19.47,21.68-43.09,24.43-68.8,16.42C10.37,183.74.55,170.2.02,152.58c-.56-18.79,9.02-33.5,26.4-40.51,8.55-3.45,17.44-5.3,26.66-5.39,11.76-.12,23.53-.24,35.3-.05,5.04.08,6.75-1.91,6.65-6.82-.39-18.63-13.98-25.8-32.41-25.14-12.07.43-22.65,4.63-27.56,17.18-.66,1.69-1.99,2.84-3.75,3.01-7.9.77-15.84.86-23.71,0-3.7-.4-3.17-3.54-2.55-6.24,2.65-11.68,8.17-21.69,18.62-27.95,24.69-14.8,50.7-15.44,76.63-4.29,17.82,7.66,24.67,23.46,25.17,41.94.48,17.71.24,35.45.06,53.18-.07,7.29,1.08,13.03,10.2,12.97,2.85-.02,4.34,1.72,4.39,4.6.03,1.92.13,3.83.09,5.75-.43,18.43,3.79,17.37-18.19,16.83-13.64-.33-18.34-4.23-24.98-18.76ZM56.99,168.61c21.57.02,34.86-10.92,37.64-30.72.76-5.41-.55-8.12-6.61-7.97-11.27.28-22.55.11-33.83.11-3.4,0-6.68.65-9.84,1.87-8.47,3.26-12.38,8.74-12.42,17.38-.04,8.54,3.9,14.07,12.34,17.45,4.1,1.64,8.38,1.95,12.72,1.88Z"/>
      <path class="cls-1" d="M785.53,172.24c-18.23,21.19-40.45,24.45-65,18.4-20.04-4.94-31.2-18.06-32.33-37.22-1.14-19.4,8.75-34.54,27.52-41.83,7.88-3.06,16.09-4.85,24.58-4.91,11.77-.09,23.54-.27,35.3-.04,5.41.11,7.02-2.08,7.09-7.23.13-9.95-3.95-17.5-12.85-21.43-11.21-4.96-22.88-4.84-34.21.22-4.22,1.88-8.51,4.52-9.98,8.91-2.65,7.91-8.23,8.89-15.23,8.26-3.33-.3-6.72,0-10.08-.07-7.79-.17-8.74-1.44-6.63-9.14,3.39-12.41,10.5-22.1,22.06-27.94,22.19-11.22,45.27-12.2,68.39-3.67,19.21,7.09,28.55,22.01,29.01,42.17.41,17.96.08,35.93.12,53.9.03,10.77.69,11.66,10.98,13.76,2.78.57,4.34,1.79,4.51,4.62.06.96.32,1.98.08,2.86-1.81,6.53,4.96,16.63-4.57,19.43-17.05,5.01-32.91-2.13-37.25-14.4-.39-1.09-.72-2.2-1.51-4.63ZM758.6,129.99c0,.15,0,.3,0,.46-6.93,0-13.86-.11-20.79.07-1.85.05-3.71.9-5.5,1.55-8.12,2.97-12.83,9.73-12.68,18.04.15,7.62,5.29,14.5,13.33,16.76,11.46,3.23,22.82,2.7,33.4-3.18,9.94-5.52,14.91-14.4,16.14-25.57.62-5.66-1.15-8.6-7.4-8.21-5.48.34-11,.07-16.5.07Z"/>
      <path class="cls-1" d="M474.85,128.54c-14.88,0-29.77-.05-44.65.03-7.37.04-8.4,1.45-6.94,8.62,5.37,26.27,33.89,39.04,57.27,25.65,5.6-3.21,10.03-7.62,12.21-13.67,1.79-4.96,5.01-6.5,9.9-6.3,4.79.2,9.6-.04,14.4.06,8.11.16,9.2,1.79,6.44,9.71-6.14,17.62-18.05,30.05-35.53,36.17-22.67,7.94-44.94,5.84-65.99-5.95-13.32-7.46-22.77-18.67-27.21-33.13-8.09-26.4-7.27-52.17,9.83-75.3,17.54-23.73,52.94-31.97,82.9-19.93,27.4,11.02,43.33,38.01,40.38,67.88-.52,5.24-3.25,6.21-7.64,6.18-15.12-.08-30.25-.03-45.37-.02ZM459.67,105.22c9.83,0,19.66-.11,29.49.04,5.6.09,7.38-1.97,5.57-7.45-4.66-14.1-18.98-23.75-35.24-23.48-15.9.26-30.09,10.22-34.38,23.79-1.59,5.03-.37,7.21,5.06,7.13,9.83-.14,19.66-.04,29.49-.03Z"/>
      <path class="cls-1" d="M1016.25,120.64c0-20.37.15-40.73-.08-61.1-.07-6.38,2.09-9.53,8.76-8.84,1.9.19,3.84,0,5.76.03,11.46.15,13.59-1.7,14.89,11.57.4,4.12,1.92,4.7,5.37,1.7,20.08-17.45,49.63-19.75,72.32-5.87,17.17,10.51,23.17,27.4,23.87,45.9,1.02,27.04.29,54.14.41,81.21.02,4.52-1.82,6.29-6.38,6.61-24.45,1.72-24.21,1.8-24.51-22.33-.27-21.3,1.43-42.64-1.17-63.89-2.06-16.81-10.69-26.85-24.52-28.68-19.04-2.51-33.3,5.08-39.69,21.25-2.22,5.61-3.35,11.47-3.36,17.54,0,22.04-.05,44.09-.14,66.13-.04,9.29-.63,10.01-9.71,9.9-25.23-.31-21.56,3.65-21.81-21.54-.16-16.53-.03-33.06-.03-49.6Z"/>
      <path class="cls-1" d="M573.57,66.98c18.4-17.55,39.51-21.43,62.59-14.88,23.12,6.56,34.49,23.47,36.97,46.33,3.14,28.86.87,57.88,1.33,86.83.07,4.43-2.02,6.6-6.57,6.53-5.76-.09-11.53-.25-17.28.08-6.03.34-7.95-2.29-7.89-8.07.2-21.79.09-43.58.06-65.37,0-3.59.06-7.2-.25-10.77-1.46-17.19-11.28-29.16-25.07-30.74-20.46-2.35-34.32,5.61-40.23,23.27-2.37,7.09-3.33,14.43-3.32,21.91.04,20.35-.19,40.71.12,61.06.1,6.56-2.11,9.25-8.71,8.72-4.29-.35-8.67-.42-12.95.01-7.5.77-9.41-2.59-9.29-9.61.36-21.54.13-43.1.13-64.65,0-19.63.15-39.27-.08-58.9-.07-5.82,1.91-8.61,7.89-8,.47.05.96,0,1.44,0q16.76-.19,21.1,16.25Z"/>
      <path class="cls-1" d="M341.52,69.12c9.81-13.11,23.28-17.94,38.88-18.48,6.61-.23,9.27,2.36,8.78,8.81-.45,5.94,1.97,12.72-1.07,17.66-3.63,5.9-11.03,2.07-16.71,2.77-17.79,2.2-28.95,13.75-29.49,33.05-.63,22.24-.25,44.5-.31,66.76q-.03,12.1-11.83,12.12-19.9.04-19.9-19.65c0-37.33-.01-74.66.01-111.99,0-9.03.39-9.6,9.23-9.37,5.89.16,12.69-2.33,17.46,1.6,4.49,3.69,1.59,11,4.95,16.72Z"/>
      <path class="cls-1" d="M873.81,95.73c0,28.95-.22,57.91.15,86.85.09,7.38-2.47,9.42-9.56,9.36-21.39-.17-21.39.08-21.39-21.14,0-53.36,0-106.71,0-160.07,0-10.52.03-10.52,10.18-10.56q20.62-.09,20.62,20.19c0,25.12,0,50.25,0,75.37Z"/>
      <path class="cls-1" d="M1000.02,82.57c-.81,1.19-1.78,2.83-2.94,4.31-26.12,33.37-52.32,66.69-78.34,100.15-2.9,3.72-5.19,4.22-8.75,1.23-4.21-3.54-8.5-7.06-13.07-10.11-5.45-3.62-5.67-6.82-1.5-12.02,19.75-24.68,39.13-49.65,58.63-74.52,6.35-8.1,12.77-16.15,18.98-24.37,2.84-3.76,5.35-4.82,9.33-1.31,4.66,4.11,9.81,7.67,14.72,11.51,1.5,1.17,3.1,2.34,2.95,5.13Z"/>
      <path class="cls-1" d="M926.55,19.77c0-11.07,8.38-19.5,19.44-19.56,11.15-.06,19.6,8.17,19.76,19.26.15,10.32-9.24,19.84-19.59,19.85-10.83.02-19.61-8.74-19.61-19.55Z"/>
    </g>
  </g>
</svg>