<svg width="164" height="102" viewBox="0 0 164 102" fill="none" xmlns="http://www.w3.org/2000/svg">
<path d="M30 1H74.7923C90.8086 1 103.792 13.9837 103.792 30V48.5206C103.792 59.236 109.326 69.1916 118.427 74.8485L160.497 101H30C13.9837 101 1 88.0163 1 72V30C1 13.9837 13.9837 1 30 1Z" fill="white" stroke="black" stroke-width="2"/>
<path d="M63.9143 31.7543C66.4017 31.7618 68.7851 32.7532 70.544 34.512C72.3028 36.2709 73.2942 38.6543 73.3017 41.1417V59.9143C73.2942 62.4017 72.3028 64.7851 70.544 66.544C68.7851 68.3028 66.4017 69.2942 63.9143 69.3017H45.1417C42.6543 69.2942 40.2709 68.3028 38.512 66.544C36.7532 64.7851 35.7618 62.4017 35.7543 59.9143V41.1417C35.7618 38.6543 36.7532 36.2709 38.512 34.512C40.2709 32.7532 42.6543 31.7618 45.1417 31.7543H63.9143ZM63.9143 28H45.1417C37.9136 28 32 33.9136 32 41.1417V59.9143C32 67.1424 37.9136 73.056 45.1417 73.056H63.9143C71.1424 73.056 77.056 67.1424 77.056 59.9143V41.1417C77.056 33.9136 71.1424 28 63.9143 28Z" fill="black"/>
<path d="M66.7306 41.1423C66.1737 41.1423 65.6292 40.9771 65.1662 40.6677C64.7031 40.3582 64.3421 39.9184 64.129 39.4039C63.9159 38.8893 63.8601 38.3231 63.9688 37.7769C64.0774 37.2306 64.3456 36.7289 64.7394 36.335C65.1333 35.9412 65.635 35.673 66.1813 35.5644C66.7275 35.4557 67.2937 35.5115 67.8083 35.7246C68.3228 35.9377 68.7626 36.2987 69.0721 36.7618C69.3815 37.2249 69.5466 37.7693 69.5466 38.3263C69.5474 38.6963 69.4751 39.0628 69.3339 39.4048C69.1927 39.7468 68.9853 40.0576 68.7236 40.3192C68.462 40.5809 68.1512 40.7883 67.8092 40.9295C67.4672 41.0708 67.1007 41.143 66.7306 41.1423Z" fill="black"/>
<path d="M54.528 43.0185C56.0133 43.0185 57.4652 43.4589 58.7001 44.2841C59.9351 45.1093 60.8976 46.2821 61.466 47.6543C62.0344 49.0265 62.1831 50.5365 61.8934 51.9932C61.6036 53.45 60.8884 54.788 59.8381 55.8383C58.7879 56.8885 57.4498 57.6038 55.9931 57.8935C54.5363 58.1833 53.0264 58.0346 51.6542 57.4662C50.282 56.8978 49.1091 55.9353 48.2839 54.7003C47.4588 53.4653 47.0183 52.0134 47.0183 50.5282C47.0205 48.5371 47.8123 46.6282 49.2202 45.2204C50.6281 43.8125 52.537 43.0206 54.528 43.0185ZM54.528 39.2642C52.3002 39.2642 50.1224 39.9248 48.2701 41.1625C46.4177 42.4002 44.974 44.1594 44.1214 46.2176C43.2689 48.2758 43.0458 50.5407 43.4804 52.7257C43.9151 54.9107 44.9878 56.9177 46.5631 58.493C48.1384 60.0683 50.1455 61.1411 52.3305 61.5757C54.5155 62.0103 56.7803 61.7873 58.8385 60.9347C60.8968 60.0822 62.656 58.6385 63.8937 56.7861C65.1314 54.9337 65.792 52.756 65.792 50.5282C65.792 47.5408 64.6053 44.6757 62.4928 42.5633C60.3804 40.4509 57.5154 39.2642 54.528 39.2642Z" fill="black"/>
</svg>
