<svg width="164" height="102" viewBox="0 0 164 102" fill="none" xmlns="http://www.w3.org/2000/svg">
<path d="M134 100H89.2077C73.7437 100 61.2077 87.464 61.2077 72V53.4794C61.2077 42.4184 55.4954 32.1416 46.1013 26.3022L7.00584 2.00001H134C149.464 2.00001 162 14.536 162 30V72C162 87.464 149.464 100 134 100Z" fill="white" stroke="black" stroke-width="4"/>
<path d="M130.374 35H95.6178C92.5203 35 90 37.5203 90 40.6178V60.6054C90 63.7029 92.5203 66.2232 95.6178 66.2232H130.374C133.472 66.2232 135.992 63.7029 135.992 60.6054V40.6184C135.992 37.5203 133.472 35 130.374 35ZM127.629 38.665L112.996 48.0925L98.3629 38.665H127.629ZM130.374 62.5588H95.6178C94.5409 62.5588 93.665 61.6823 93.665 60.606V40.7223L111.865 52.4258C111.89 52.441 111.916 52.4514 111.941 52.4655C111.967 52.4801 111.994 52.4942 112.021 52.5076C112.162 52.5803 112.308 52.639 112.456 52.6774C112.471 52.6817 112.487 52.6835 112.502 52.6872C112.665 52.7257 112.83 52.7495 112.995 52.7495H112.996C112.997 52.7495 112.998 52.7495 112.998 52.7495C113.163 52.7495 113.328 52.7263 113.491 52.6872C113.507 52.6835 113.522 52.6817 113.537 52.6774C113.686 52.639 113.83 52.5803 113.972 52.5076C113.999 52.4942 114.026 52.4801 114.052 52.4655C114.077 52.4514 114.103 52.441 114.128 52.4258L132.328 40.7223V60.6054C132.328 61.6823 131.451 62.5588 130.374 62.5588Z" fill="black"/>
</svg>
