<svg width="164" height="102" viewBox="0 0 164 102" fill="none" xmlns="http://www.w3.org/2000/svg">
<path d="M30 1H74.7923C90.8086 1 103.792 13.9837 103.792 30V48.5206C103.792 59.236 109.326 69.1916 118.427 74.8485L160.497 101H30C13.9837 101 1 88.0163 1 72V30C1 13.9837 13.9837 1 30 1Z" fill="white" stroke="black" stroke-width="2"/>
<path d="M41.9684 27C38.6799 27 36.0024 29.6769 36 32.968C36 36.2591 38.6775 38.9366 41.9684 38.9366C45.2581 38.9366 47.9342 36.2591 47.9342 32.968C47.9342 29.6773 45.2579 27 41.9684 27Z" fill="black"/>
<path d="M46.4475 37.6172H37.4882C37.062 37.6172 36.7163 37.9627 36.7163 38.3892V67.2267C36.7163 67.6531 37.062 67.9986 37.4882 67.9986H46.4474C46.8737 67.9986 47.2194 67.6529 47.2194 67.2267V38.3892C47.2196 37.9625 46.8739 37.6172 46.4475 37.6172Z" fill="black"/>
<path d="M69.352 37.2773C66.0733 37.2773 63.1921 38.2757 61.4339 39.9037V38.3889C61.4339 37.9624 61.0882 37.6168 60.6618 37.6168H52.0676C51.6412 37.6168 51.2956 37.9624 51.2956 38.3889V67.2264C51.2956 67.6527 51.6412 67.9982 52.0676 67.9982H61.0184C61.4447 67.9982 61.7904 67.6526 61.7904 67.2264V52.9591C61.7904 48.8655 62.5433 46.3282 66.301 46.3282C70.0032 46.3327 70.2802 49.0535 70.2802 53.2036V67.2264C70.2802 67.6527 70.6259 67.9982 71.0524 67.9982H80.0073C80.4335 67.9982 80.7792 67.6526 80.7792 67.2264V51.4078C80.779 44.8288 79.4802 37.2773 69.352 37.2773Z" fill="black"/>
</svg>
